<?xml version="1.0" encoding="iso-8859-1"?>
<!-- Uploaded to: SVG Repo, www.svgrepo.com, Generator: SVG Repo Mixer Tools -->
<svg height="800px" width="800px" version="1.1" id="Layer_1" xmlns="http://www.w3.org/2000/svg" xmlns:xlink="http://www.w3.org/1999/xlink" 
	 viewBox="0 0 392.469 392.469" xml:space="preserve">
<circle style="fill:#FFFFFF;" cx="162.295" cy="160.129" r="139.184"/>
<path style="fill:#56ACE0;" d="M162.295,43.572c-30.707,0-58.505,11.96-79.386,31.418h36.719c6.012,0,10.925,4.848,10.925,10.925
	c0,6.012-4.848,10.925-10.925,10.925H64.614c-2.909,4.59-5.56,9.374-7.887,14.287h30.707c6.012,0,10.925,4.848,10.925,10.925
	c0,6.012-4.848,10.925-10.925,10.925H49.164c-2.069,8.727-3.297,17.842-3.297,27.216c-0.065,64.194,52.234,116.558,116.428,116.558
	s116.558-52.234,116.558-116.558S226.618,43.572,162.295,43.572z"/>
<g>
	<path style="fill:#FFC10D;" d="M41.794,370.747H282.99c6.012,0,10.925-4.848,10.925-10.925v-28.638
		c0-6.012-4.848-10.925-10.925-10.925H41.794c-6.012,0-10.925,4.848-10.925,10.925v28.638
		C30.869,365.834,35.717,370.747,41.794,370.747z"/>
	<circle style="fill:#FFC10D;" cx="357.527" cy="141.317" r="11.055"/>
</g>
<path style="fill:#194F82;" d="M204.057,160.129c0-22.949-18.683-41.632-41.632-41.632s-41.632,18.683-41.632,41.632
	s18.683,41.632,41.632,41.632C185.309,201.826,204.057,183.143,204.057,160.129z M142.448,160.129
	c0-10.99,8.857-19.846,19.846-19.846s19.846,8.857,19.846,19.846s-8.857,19.846-19.846,19.846
	C151.434,179.976,142.448,171.055,142.448,160.129z"/>
<path style="fill:#FFFFFF;" d="M182.141,160.129c0-10.99-8.857-19.846-19.846-19.846c-10.99,0-19.846,8.857-19.846,19.846
	s8.857,19.846,19.846,19.846C173.285,179.976,182.141,171.055,182.141,160.129z"/>
<path style="fill:#194F82;" d="M390.238,141.317c0-18.101-14.675-32.776-32.776-32.776s-32.776,14.675-32.776,32.776
	c0,15.515,10.925,28.574,25.406,31.935c9.374,51.329-4.719,104.339-37.56,144.356c-5.172-11.184-16.549-19.006-29.673-19.006
	h-40.016c47.58-27.798,79.58-79.386,79.58-138.343C322.424,71.887,250.537,0,162.23,0c-88.178,0-160,71.887-160,160.129
	c0,58.958,32.065,110.481,79.58,138.279H41.794c-18.036,0-32.711,14.675-32.711,32.711v28.638c0,18.036,14.675,32.711,32.711,32.711
	H282.99c18.036,0,32.711-14.675,32.711-32.711v-13.446c46.352-45.77,67.362-111.709,56.242-175.644
	C382.739,165.366,390.238,154.246,390.238,141.317z M23.24,160.129c0-76.865,62.255-139.184,139.184-139.184
	S301.608,83.2,301.608,160.129s-62.255,139.184-139.184,139.184S23.24,236.929,23.24,160.129z M293.85,359.822
	c0,6.012-4.848,10.925-10.925,10.925H41.794c-6.012,0-10.925-4.848-10.925-10.925v-28.638c0-6.012,4.848-10.925,10.925-10.925
	H282.99c6.012,0,10.925,4.848,10.925,10.925L293.85,359.822L293.85,359.822z M357.527,152.307c-6.077,0-11.055-4.913-11.055-11.055
	c0-6.077,4.978-11.055,11.055-11.055c6.077,0,11.055,4.913,11.055,11.055C368.582,147.329,363.604,152.307,357.527,152.307z"/>
</svg>