<?xml version="1.0" encoding="iso-8859-1"?>
<!-- Uploaded to: SVG Repo, www.svgrepo.com, Generator: SVG Repo Mixer Tools -->
<svg height="800px" width="800px" version="1.1" id="Layer_1" xmlns="http://www.w3.org/2000/svg" xmlns:xlink="http://www.w3.org/1999/xlink" 
	 viewBox="0 0 512 512" xml:space="preserve">
<path style="fill:#BDFDFF;" d="M500.911,220.648l-128.545-78.987V85.348c0-12.852-10.419-23.272-23.27-23.273l-69.823-0.011V23.273
	C279.272,10.42,268.852,0,255.998,0s-23.273,10.42-23.273,23.273v38.784l-69.817-0.011h-0.003c-6.172,0-12.091,2.451-16.454,6.816
	c-4.365,4.365-6.819,10.285-6.819,16.457v65.121L106,128.019c-7.818-5.212-18.004-5.212-25.823,0l-69.816,46.547
	C3.888,178.883,0,186.149,0,193.93v294.797C0,501.58,10.42,512,23.273,512h139.631h93.094h93.094h139.634
	C501.58,512,512,501.58,512,488.727v-248.25C512,232.39,507.801,224.882,500.911,220.648z"/>
<path style="fill:#898890;" d="M279.272,488.727v-23.273V442.17c0-12.853-10.42-23.273-23.273-23.273s-23.273,10.42-23.273,23.273
	v23.283v23.273c0,12.853,10.42,23.273,23.273,23.273S279.272,501.58,279.272,488.727z"/>
<path style="fill:#B3D8F4;" d="M372.366,465.453v23.273c0,12.853-10.42,23.273-23.273,23.273h139.634
	C501.58,512,512,501.58,512,488.727v-248.25c0-8.087-4.199-15.595-11.089-19.829l-128.545-78.987v27.315L372.366,465.453
	L372.366,465.453z"/>
<path style="fill:#8CB7E8;" d="M0,193.93v294.797C0,501.58,10.42,512,23.273,512h139.631c-12.853,0-23.273-10.42-23.273-23.273
	v-23.273V206.386v-27.972v-27.973L106,128.019c-7.818-5.212-18.003-5.212-25.821,0l-69.816,46.547C3.888,178.883,0,186.149,0,193.93
	z"/>
<path style="fill:#898890;" d="M279.272,62.064V23.273C279.272,10.42,268.852,0,255.998,0s-23.273,10.42-23.273,23.273v38.784
	l23.273,0.003L279.272,62.064z"/>
<path style="fill:#81E5EE;" d="M232.725,488.727v-23.273V442.17c0-12.853,10.42-23.273,23.273-23.273V62.061l-23.273-0.003
	l-69.817-0.011h-0.003c-6.172,0-12.091,2.451-16.454,6.816c-4.365,4.365-6.819,10.285-6.819,16.457v65.121v27.972v27.972v259.069
	v23.273c0,12.853,10.42,23.273,23.273,23.273h93.094C243.145,512,232.725,501.58,232.725,488.727z"/>
</svg>