<svg version="1.1" id="Layer_1" xmlns="http://www.w3.org/2000/svg" xmlns:xlink="http://www.w3.org/1999/xlink" viewBox="0 0 512.001 512.001" xml:space="preserve" fill="#000000"><g id="SVGRepo_bgCarrier" stroke-width="0"></g><g id="SVGRepo_tracerCarrier" stroke-linecap="round" stroke-linejoin="round"></g><g id="SVGRepo_iconCarrier"> <path style="fill:#ffffff;" d="M474.48,84.43c-1.519,0-3.002,0.15-4.439,0.427c0.182-1.572,0.287-3.169,0.287-4.791 c0-22.758-18.449-41.208-41.208-41.208c-22.758,0-41.208,18.449-41.208,41.208c0,1.622,0.104,3.219,0.287,4.791 c-1.438-0.277-2.921-0.427-4.439-0.427c-12.885,0-23.329,10.445-23.329,23.329s10.445,23.329,23.329,23.329h90.723 c12.885,0,23.329-10.445,23.329-23.329S487.363,84.43,474.48,84.43z"></path> <path style="fill:#000000;" d="M474.48,145.28h-90.724c-20.689,0-37.52-16.832-37.52-37.52c0-17.456,11.984-32.167,28.157-36.338 c4.164-26.456,27.118-46.755,54.727-46.755c27.609,0,50.564,20.299,54.728,46.755c16.172,4.171,28.155,18.882,28.155,36.338 C512,128.448,495.168,145.28,474.48,145.28z M383.755,98.621c-5.038,0-9.137,4.099-9.137,9.137s4.1,9.137,9.137,9.137h90.724 c5.038,0,9.137-4.099,9.137-9.137c0.001-5.617-5.174-10.063-10.892-8.966c-4.443,0.852-9.025-0.457-12.338-3.534 c-3.315-3.077-4.964-7.549-4.442-12.042c0.129-1.11,0.192-2.14,0.192-3.152c0-14.897-12.12-27.016-27.017-27.016 c-14.896,0-27.016,12.12-27.016,27.016c0,1.01,0.062,2.041,0.192,3.152c0.522,4.493-1.127,8.965-4.442,12.042 c-3.317,3.077-7.905,4.39-12.338,3.534C384.925,98.68,384.334,98.621,383.755,98.621z"></path> <g> <rect x="235.032" y="124.841" style="fill:#ffffff;" width="85.143" height="348.297"></rect> <path style="fill:#ffffff;" d="M152.943,259.026c2.496-5.988,3.88-12.556,3.88-19.447c0-27.932-22.643-50.576-50.576-50.576 s-50.576,22.643-50.576,50.576c0,6.892,1.384,13.46,3.88,19.447c-25.481,2.61-45.36,24.138-45.36,50.309 c0,27.932,22.643,50.576,50.576,50.576c17.175,0,32.34-8.569,41.481-21.655c9.141,13.088,24.306,21.655,41.481,21.655 c27.932,0,50.576-22.643,50.576-50.576C198.304,283.164,178.424,261.636,152.943,259.026z"></path> <rect x="405.518" y="355.351" style="fill:#ffffff;" width="55.731" height="117.793"></rect> </g> <path style="fill:#000000;" d="M486.601,458.952h-10.313V355.351c0-7.838-6.355-14.192-14.192-14.192 c-0.143,0-0.282,0.017-0.426,0.021c-0.143-0.004-0.282-0.021-0.426-0.021h-55.726c-7.837,0-14.192,6.354-14.192,14.192v103.601 H334.36v-227.07h113.543v56.777c0,7.838,6.355,14.192,14.192,14.192s14.192-6.354,14.192-14.192V217.69 c0-7.838-6.355-14.192-14.192-14.192H334.36v-78.657c0-7.838-6.355-14.192-14.192-14.192h-85.143 c-7.837,0-14.192,6.354-14.192,14.192v114.851h-49.823c0-0.038,0.004-0.075,0.004-0.114c0-35.712-29.055-64.767-64.767-64.767 S41.48,203.865,41.48,239.578c0,3.046,0.209,6.06,0.624,9.036C17.256,257.814,0,281.627,0,309.335 c0,35.712,29.055,64.767,64.767,64.767c10.806,0,21.271-2.721,30.545-7.688v92.537H79.318c-7.837,0-14.192,6.354-14.192,14.192 c0,7.838,6.355,14.192,14.192,14.192h30.186h125.521h85.143h85.35h55.727h0.852h24.505c7.837,0,14.192-6.354,14.192-14.192 C500.794,465.305,494.439,458.952,486.601,458.952z M117.882,330.126c-2.655-3.801-6.999-6.064-11.634-6.064 s-8.979,2.265-11.634,6.064c-6.819,9.763-17.977,15.591-29.845,15.591c-20.062,0-36.384-16.321-36.384-36.384 c0-18.728,14.022-34.286,32.614-36.191c4.468-0.457,8.454-3.002,10.75-6.86c2.296-3.859,2.631-8.576,0.903-12.72 c-1.849-4.434-2.787-9.138-2.787-13.983c0-20.062,16.322-36.384,36.384-36.384s36.384,16.321,36.384,36.384 c0,4.845-0.938,9.55-2.787,13.983c-1.729,4.144-1.394,8.861,0.903,12.72s6.283,6.403,10.75,6.86 c18.594,1.905,32.614,17.465,32.614,36.191c0,20.062-16.322,36.384-36.384,36.384C135.859,345.719,124.701,339.89,117.882,330.126z M220.834,458.952h-97.138v-89.5c7.549,3.023,15.688,4.651,24.033,4.651c35.712,0,64.767-29.055,64.767-64.767 c0-15.637-5.498-30.03-14.751-41.259h23.09v190.875H220.834z M249.218,253.885V139.033h56.759v78.656V458.95h-56.759V253.885z M419.71,458.952v-89.409h27.343v89.409H419.71z"></path> </g></svg>
