<?xml version="1.0" encoding="utf-8"?>
<!-- Svg Vector Icons : http://www.onlinewebfonts.com/icon -->
<!DOCTYPE svg PUBLIC "-//W3C//DTD SVG 1.1//EN" "http://www.w3.org/Graphics/SVG/1.1/DTD/svg11.dtd">
<svg version="1.1" xmlns="http://www.w3.org/2000/svg" xmlns:xlink="http://www.w3.org/1999/xlink" x="0px" y="0px" viewBox="0 0 1000 1000" enable-background="new 0 0 1000 1000" xml:space="preserve">
<metadata> Svg Vector Icons : http://www.onlinewebfonts.com/icon </metadata>
<g><path d="M19.9,659.8c-4.2,12.5-0.6,21.2,12,25.3l370.2,118.8c1.5,0.5,3,0.8,4.5,1c0-16.5,2.8-20,8-34.8l-367.5-118C34.5,648.1,24.1,647.3,19.9,659.8z M387.1,390.1l-176.2,32.6l59.5,167.2l38.9-66.6l84.2,48.1l38.9-66.6l-84.2-48.1L387.1,390.1z M405.9,511.8l-19.4,33.3L302.2,497l-19.4,33.3l-38.2-88.4l96.5-11.5l-19.5,33.3L405.9,511.8z M553,710.1c-55.6,0-100.6,44.8-100.6,100c0,55.2,45,100,100.6,100c55.7,0,100.7-44.8,100.7-100C653.7,754.9,608.7,710.1,553,710.1z M553,869.9c-33.3,0-60.2-26.8-60.2-59.8c0-33.1,27-59.8,60.2-59.8c33.2,0,60.2,26.8,60.2,59.8C613.2,843.1,586.2,869.9,553,869.9z M989.3,264.4c-2.3-13-11.9-14.6-25-12.3l-257.7,42.5l-7.5,24.1L579.8,674.8c15.1,2.7,22,4.8,35.1,11.8l119.4-356.3l241.2-44.6C988.6,283.5,991.6,277.4,989.3,264.4z M553,789.9c-11.2,0-20.2,9-20.2,20.1c0,11.1,9,20.1,20.2,20.1s20.2-9,20.2-20.1C573.2,798.9,564.1,789.9,553,789.9z M532.8,670l140.8-420.1l-241.3-80l-40.2,140l-40.2-20l40.2-140l-221.2-60L10,590l434.1,133.3l7.8-8.4c17-18.5,38.9-31.5,63.3-37.7L532.8,670z M432.2,690l-382-120L191,129.9l160.9,40l-40.2,140l100.5,40l40.2-140l181,60L492.6,650C469,657.5,450.2,673.1,432.2,690z"/></g>
</svg>