<?xml version="1.0" encoding="utf-8"?><svg version="1.1" id="Layer_1" xmlns="http://www.w3.org/2000/svg" xmlns:xlink="http://www.w3.org/1999/xlink" x="0px" y="0px" viewBox="0 0 122.88 97.5" style="enable-background:new 0 0 122.88 97.5" xml:space="preserve"><style type="text/css">.st0{fill-rule:evenodd;clip-rule:evenodd;}</style><g><path class="st0" d="M8.32,0h106.24c4.58,0,8.32,3.74,8.32,8.32v80.86c0,4.58-3.74,8.32-8.32,8.32H8.32C3.74,97.5,0,93.76,0,89.18 V8.32C0,3.74,3.74,0,8.32,0L8.32,0z M23.85,81.86c-0.95,0-1.71-0.84-1.71-1.88s0.77-1.88,1.71-1.88h42.54 c0.95,0,1.71,0.84,1.71,1.88c0,1.04-0.77,1.88-1.71,1.88H23.85L23.85,81.86z M23.85,72.94c-0.95,0-1.71-0.84-1.71-1.88 s0.77-1.88,1.71-1.88h42.54c0.95,0,1.71,0.84,1.71,1.88c0,1.04-0.77,1.88-1.71,1.88H23.85L23.85,72.94z M80.65,81.86 c-0.95,0-1.71-0.84-1.71-1.88s0.77-1.88,1.71-1.88h18.38c0.95,0,1.71,0.84,1.71,1.88c0,1.04-0.77,1.88-1.71,1.88H80.65L80.65,81.86 z M79.97,72.94c-0.95,0-1.71-0.84-1.71-1.88s0.77-1.88,1.71-1.88h18.38c0.95,0,1.71,0.84,1.71,1.88c0,1.04-0.77,1.88-1.71,1.88 H79.97L79.97,72.94z M73.99,35.31h9.41l3.58,14.05l3.6-14.05h9.37v23.09h-5.84v-17.6l-4.5,17.6h-5.29l-4.49-17.6v17.6h-5.84V35.31 L73.99,35.31z M49.01,58.39V35.31H60.9c2.2,0,3.89,0.19,5.05,0.57c1.17,0.38,2.11,1.08,2.82,2.1c0.71,1.03,1.07,2.28,1.07,3.75 c0,1.28-0.27,2.39-0.82,3.32c-0.54,0.93-1.29,1.69-2.26,2.27c-0.61,0.37-1.45,0.67-2.5,0.91c0.85,0.28,1.47,0.56,1.85,0.85 c0.26,0.19,0.64,0.6,1.14,1.21c0.49,0.62,0.83,1.1,0.99,1.43l3.47,6.67h-8.06l-3.81-7.04c-0.48-0.91-0.91-1.5-1.29-1.78 c-0.52-0.35-1.1-0.53-1.75-0.53h-0.63v9.35H49.01L49.01,58.39z M56.17,44.69h3.01c0.32,0,0.96-0.11,1.89-0.32 c0.47-0.09,0.86-0.33,1.16-0.73c0.3-0.39,0.45-0.84,0.45-1.34c0-0.75-0.24-1.32-0.71-1.72c-0.47-0.4-1.36-0.6-2.67-0.6h-3.14V44.69 L56.17,44.69z M39.16,48.95l6.25,1.89c-0.42,1.75-1.08,3.22-1.99,4.39c-0.9,1.18-2.02,2.06-3.36,2.66c-1.34,0.6-3.04,0.9-5.11,0.9 c-2.51,0-4.56-0.37-6.16-1.09c-1.59-0.73-2.96-2.02-4.12-3.85c-1.16-1.83-1.74-4.19-1.74-7.04c0-3.82,1.02-6.75,3.05-8.8 c2.04-2.05,4.91-3.07,8.63-3.07c2.91,0,5.2,0.59,6.86,1.76c1.66,1.18,2.9,2.98,3.71,5.42L38.9,43.5c-0.22-0.7-0.45-1.21-0.69-1.53 c-0.4-0.54-0.89-0.96-1.47-1.25c-0.58-0.3-1.23-0.44-1.94-0.44c-1.62,0-2.86,0.65-3.72,1.95c-0.65,0.96-0.98,2.48-0.98,4.54 c0,2.56,0.39,4.3,1.17,5.26c0.78,0.95,1.87,1.42,3.28,1.42c1.36,0,2.4-0.38,3.1-1.15C38.33,51.52,38.84,50.4,39.16,48.95 L39.16,48.95z M117.97,23.29H5.29v66.7c0,0.64,0.25,1.2,0.67,1.63c0.42,0.43,0.99,0.67,1.63,0.67h108.04c0.64,0,1.2-0.25,1.63-0.67 c0.43-0.43,0.67-0.99,0.67-1.63v-66.7H117.97L117.97,23.29z M106.64,9.35c2.27,0,4.11,1.84,4.11,4.11s-1.84,4.11-4.11,4.11 c-2.27,0-4.11-1.84-4.11-4.11S104.38,9.35,106.64,9.35L106.64,9.35z M78.8,9.35c2.27,0,4.11,1.84,4.11,4.11s-1.84,4.11-4.11,4.11 c-2.27,0-4.11-1.84-4.11-4.11S76.53,9.35,78.8,9.35L78.8,9.35z M92.72,9.35c2.27,0,4.11,1.84,4.11,4.11s-1.84,4.11-4.11,4.11 c-2.27,0-4.11-1.84-4.11-4.11S90.45,9.35,92.72,9.35L92.72,9.35z"/></g></svg>