<?xml version="1.0" encoding="utf-8"?>
<!-- Svg Vector Icons : http://www.onlinewebfonts.com/icon -->
<!DOCTYPE svg PUBLIC "-//W3C//DTD SVG 1.1//EN" "http://www.w3.org/Graphics/SVG/1.1/DTD/svg11.dtd">
<svg version="1.1" xmlns="http://www.w3.org/2000/svg" xmlns:xlink="http://www.w3.org/1999/xlink" x="0px" y="0px" viewBox="0 0 1000 1000" enable-background="new 0 0 1000 1000" xml:space="preserve">
<metadata> Svg Vector Icons : http://www.onlinewebfonts.com/icon </metadata>
<g><g transform="translate(0.000000,512.000000) scale(0.100000,-0.100000)"><path d="M4631.9,5016.4c-1167.2-101.6-2211.7-571.1-3026.3-1358.8c-829.9-803-1332-1805.4-1481.5-2961.1C87.7,418.5,93.4-282.9,135.6-549.3c65.2-421.7,151.4-749.4,287.5-1102c619.1-1581.2,2020.1-2740.7,3679.8-3047.4C6046.3-5055.2,7984-4233,9078.3-2586.7c1276.4,1920.4,1046.4,4448.4-555.8,6108.1c-783.9,812.6-1811.2,1328.2-2932.4,1468.1C5417.7,5010.7,4777.5,5029.8,4631.9,5016.4z M5262.4,4196.1C5433,3906.7,5571,3659.5,5571,3648s-138-258.7-308.6-548.1c-295.1-502.1-310.5-525.1-366-525.1c-243.4,0-722.5-122.7-977.5-251.1c-465.7-233.8-885.5-647.8-1111.6-1100.1c-93.9-184-180.2-435.1-216.6-624.8c-15.3-88.2-30.7-161-34.5-162.9c-1.9-3.8-245.3,136.1-540.5,310.5c-295.2,172.5-540.5,314.3-546.2,314.3c-5.7,0-241.5-138-527.1-304.7C555.3,527.8,423.1,458.8,417.3,481.8c-9.6,49.8,36.4,383.3,86.2,617.1c147.6,668.9,467.6,1341.6,908.5,1899.3c701.5,889.3,1805.4,1516,2941.9,1673.2c247.2,34.5,323.9,42.2,481.1,46l118.8,3.8L5262.4,4196.1z M5647.6,4673.3c465.7-67.1,944.9-216.6,1379.9-433.1c933.4-465.7,1634.8-1169.1,2091-2096.7c281.7-576.9,427.4-1126.9,469.6-1774.8l11.5-201.2L9072.6-143c-289.4-170.6-538.6-310.5-550.1-310.5c-11.5,0-258.7,138-546.2,306.7l-523.2,308.6l-13.4,147.6c-17.3,203.2-59.4,404.4-124.6,601.8C7044.8,1719.9,6307,2367.7,5473.2,2526.8c-88.2,15.3-161,32.6-162.9,34.5c-3.8,3.8,136.1,247.2,308.6,540.5c174.4,295.2,312.4,548.1,306.7,563.5c-9.6,24.9-523.2,902.7-580.7,994.7c-26.8,40.3-24.9,42.2,36.4,42.2C5417.7,4702.1,5536.5,4688.7,5647.6,4673.3z M5321.8,2239.3c450.4-67.1,860.6-276,1188.3-603.7c726.4-726.4,837.5-1864.8,266.4-2710C6379.8-1659,5697.5-2025.1,4996-2025.1c-810.7,0-1554.4,465.7-1924.2,1201.7c-406.3,812.6-241.5,1807.3,410.1,2459C3968.7,2122.4,4641.4,2342.8,5321.8,2239.3z M2017.7,387.9c502.1-295.1,525.1-310.5,525.1-366.1c0-138,65.2-481.1,124.6-661.2c120.7-364.2,300.9-659.3,565.4-933.4c360.3-371.8,789.6-607.6,1293.7-711.1c84.3-17.2,153.3-32.6,157.2-34.5c1.9-3.8-138-245.3-312.4-540.5c-172.5-295.2-314.3-540.5-314.3-546.2c0-5.8,138-241.5,304.7-527.1c270.2-460,300.9-517.5,264.5-523.2c-134.2-23-818.4,120.7-1172.9,245.3c-224.2,78.6-624.8,272.2-849,408.2C1312.4-3014.1,501.6-1657.1,403.9-127.7L390.5,75.5l525.1,310.5c289.4,170.6,536.6,310.5,550.1,310.5C1481,696.4,1728.3,558.4,2017.7,387.9z M7968.6-497.6c281.7-164.8,523.2-304.7,536.7-310.5c15.3-5.7,260.7,128.4,544.3,295.2C9513.4-238.8,9567-212,9572.8-248.4c13.4-72.8-55.6-496.4-120.7-751.3c-88.2-346.9-178.2-584.6-345-920C8656.7-2828.2,7968.6-3520,7056.3-3981.9c-571.1-287.5-1157.6-446.6-1813.1-488.7l-201.2-11.5l-310.5,527.1C4561-3665.7,4421-3416.5,4421-3405c0,11.5,138,258.7,306.7,546.2l308.6,523.2l147.6,13.4C6328-2220.6,7223.1-1392.6,7418.6-256.1c7.7,40.3,19.2,69,26.8,65.2C7453.1-194.8,7688.8-334.7,7968.6-497.6z"/><path d="M4718.1,3918.2c-141.8-61.3-195.5-312.4-105.4-483c30.7-55.6,134.2-113.1,203.2-113.1c80.5,0,189.7,74.7,187.8,130.3c0,23-1.9,76.7-3.8,118.8l-3.8,76.7h-105.4c-97.7,0-105.4-3.8-105.4-46c0-40.2,7.7-46,63.2-42.2c49.8,1.9,63.3-5.7,67.1-42.2c9.6-63.3-28.8-99.7-103.5-99.7c-88.2,0-141.8,84.3-141.8,222.3c0,162.9,97.7,245.3,205.1,170.6c38.3-26.8,101.6-21.1,101.6,7.7c0,7.7-21.1,32.6-46,57.5C4881,3922,4777.5,3943.1,4718.1,3918.2z"/><path d="M4315.6,3858.8c-5.7-11.5,1.9-90.1,19.2-174.4c17.2-84.3,28.8-159.1,23-162.9c-3.8-3.8-65.2,61.3-138,145.7c-107.3,124.6-138,151.4-170.6,141.8c-23-7.7-44.1-15.3-47.9-19.2c-7.7-5.7,80.5-440.8,105.4-529c11.5-36.4,40.2-44.1,78.6-19.2c17.3,11.5,13.4,55.6-15.3,184c-21.1,93.9-34.5,172.5-30.7,176.3c3.8,3.8,69-65.2,143.7-153.3c118.8-138,143.7-159.1,187.8-149.5c38.3,7.7,46,17.3,38.3,49.8c-5.8,21.1-32.6,149.5-61.3,283.7c-44.1,203.1-57.5,245.3-86.2,245.3C4342.5,3878,4321.4,3868.4,4315.6,3858.8z"/><path d="M3784.7,3730.4c-19.2-3.8-34.5-15.3-34.5-21.1c0-7.7,40.2-132.2,88.2-276c70.9-212.7,93.9-264.5,122.7-264.5c19.2,0,40.2,7.7,46,15.3c11.5,19.2-164.8,561.6-180.2,557.7C3821.2,3740,3802,3736.1,3784.7,3730.4z"/><path d="M3447.4,3600c-107.3-49.8-139.9-74.7-134.2-99.7c3.8-21.1,21.1-32.6,44.1-28.7c107.3,17.3,103.5,19.2,201.2-197.4c51.8-115,103.5-210.8,113.1-208.9c51.8,5.7,59.4,9.6,59.4,34.5c0,13.4-38.3,113.1-86.3,220.4c-47.9,107.3-86.2,203.2-86.2,212.7c0,11.5,21.1,30.7,47.9,42.2c51.8,23,57.5,78.6,9.6,86.3C3600.8,3663.3,3524.1,3636.5,3447.4,3600z"/><path d="M3060.3,3400.7c-69-42.2-124.6-82.4-124.6-92c0-7.7,63.2-124.6,141.8-256.8l141.8-241.5l130.3,74.8c151.4,86.2,161,97.7,122.7,130.3c-23,19.2-44.1,13.4-113.1-26.8c-47.9-26.8-90.1-49.8-93.9-49.8c-11.5,0-93.9,138-86.2,143.7c3.8,1.9,46,28.8,95.8,59.4c80.5,49.8,86.2,59.4,63.2,90.1c-24.9,34.5-28.8,32.6-103.5-13.4c-95.8-61.3-105.4-61.3-143.7-1.9c-44.1,67.1-40.2,76.7,57.5,134.2c59.4,34.5,84.3,59.4,76.7,80.5c-5.8,15.3-11.5,32.6-11.5,36.4C3213.6,3485.1,3179.1,3469.7,3060.3,3400.7z"/><path d="M2747.9,3191.8c-24.9-26.8-28.8-57.5-15.3-185.9c7.7-84.3,13.4-155.2,11.5-159.1c-1.9-1.9-40.2,42.2-86.2,101.6c-69,88.2-86.2,101.6-116.9,84.3c-19.2-9.6-36.4-24.9-36.4-32.6c0-30.7,350.7-454.2,369.9-448.5c53.7,15.3,55.6,44.1,7.7,115c-53.7,76.7-69,149.5-26.8,132.3c11.5-3.8,72.8-24.9,132.3-42.2c107.3-34.5,111.2-34.5,149.5,0c38.3,34.5,36.4,36.4-132.2,90.1l-168.7,53.7l-13.4,88.2c-5.8,49.8-11.5,122.7-11.5,162.9C2811.1,3234,2793.9,3243.6,2747.9,3191.8z"/><path d="M2224.6,2724.2l-105.4-99.7l82.4-84.3c46-46,141.8-136.1,212.7-199.3c120.7-109.2,132.3-115,162.9-86.2c28.7,30.7,24.9,38.3-44.1,109.2c-57.5,57.5-69,82.4-51.8,99.7c17.3,17.3,49.8,13.4,136.1-13.4c93.9-28.8,120.7-30.7,145.7-9.6c46,38.3,34.5,51.7-80.5,90.1c-99.7,34.5-111.2,42.2-113.1,95.8c-3.8,78.6-38.3,134.2-103.5,168.7C2376,2841.1,2335.8,2829.6,2224.6,2724.2z M2445,2678.2c42.2-53.7,36.4-86.2-30.7-145.7c-34.5-32.6-40.2-30.7-103.5,34.5l-65.2,67.1l53.7,47.9C2368.4,2741.4,2397.1,2739.5,2445,2678.2z"/><path d="M1902.7,2337c-28.7-46-26.8-51.8,136.1-264.5c222.3-293.2,208.9-281.7,237.7-220.4c19.2,44.1,17.2,57.5-11.5,90.1c-32.6,36.4-32.6,40.2,17.3,115c46,70.9,57.5,76.7,115,67.1c65.2-13.4,132.2,32.6,95.8,65.2c-13.4,13.4-530.9,193.6-552,193.6C1937.2,2383,1919.9,2361.9,1902.7,2337z M2134.6,2225.9c61.3-23,115-44.1,118.8-46c3.8-3.8-13.4-32.6-38.3-67.1l-42.2-61.3l-46,55.6c-72.8,88.2-124.6,161-115,161C2017.7,2268,2071.3,2248.9,2134.6,2225.9z"/><path d="M1668.8,1978.6l-30.7-61.3l141.8-141.8c128.4-130.3,136.1-139.9,82.4-130.3c-84.3,15.3-304.7,47.9-320.1,47.9c-7.7,0-26.8-24.9-44.1-57.5l-28.7-57.5l251.1-124.6c138-70.9,262.6-122.7,277.9-116.9c63.2,24.9,19.2,72.8-139.9,155.2l-168.7,88.2l95.8-11.5c256.8-30.7,335.4-32.6,335.4-15.3c0,11.5-69,82.4-153.3,159.1c-86.2,76.7-151.4,141.8-145.7,147.6c3.8,3.8,86.2-30.7,182.1-78.6c170.6-86.2,174.4-86.2,193.6-47.9c13.4,21.1,19.2,42.2,15.3,46c-3.8,1.9-120.7,61.3-258.7,132.2L1699.5,2038L1668.8,1978.6z"/><path d="M7332.3,3005.9c-80.5-44.1-95.8-118.8-53.7-241.5c19.2-55.6,36.4-116.9,36.4-136.1c0-38.3-53.7-70.9-95.8-57.5c-40.2,11.5-95.8,84.3-95.8,124.6c0,34.5-32.6,42.2-72.8,15.3c-21.1-13.4-21.1-26.8,1.9-82.4c65.2-153.3,235.7-201.2,327.7-90.1c59.4,70.9,61.3,82.4,9.6,218.5c-42.2,111.2-38.3,155.2,11.5,174.4c34.5,13.4,124.6-61.3,124.6-101.6c0-13.4,21.1-24.9,47.9-24.9c26.8,0,47.9,11.5,47.9,24.9c0,51.8-80.5,151.4-143.8,178.3C7399.4,3040.4,7395.6,3040.4,7332.3,3005.9z"/><path d="M7573.8,2536.3c-136.1-63.2-256.8-116.9-266.4-120.7c-9.6-1.9-3.8-24.9,9.6-47.9c17.3-26.8,38.3-38.3,55.6-30.7c74.8,32.6,107.3,24.9,161-40.2c51.7-65.2,53.7-69,21.1-116.9c-30.7-47.9-30.7-51.7,3.8-88.2c36.4-34.5,38.3-32.6,193.6,212.7c86.2,138,157.2,258.7,157.2,266.4c0,17.3-63.2,80.5-78.6,78.6C7826.8,2649.4,7711.8,2597.7,7573.8,2536.3z M7717.6,2421.4c-42.2-63.2-80.5-115-82.4-115c-3.8,0-24.9,26.8-49.8,57.5l-42.1,57.5l120.7,57.5c67.1,32.6,122.6,57.5,126.5,57.5C7792.3,2536.3,7759.7,2484.6,7717.6,2421.4z"/><path d="M7847.9,2177.9L7604.5,2015l78.6-118.8c44.1-63.3,80.5-118.8,82.4-122.7c9.6-11.5,67.1,21.1,67.1,36.4c0,9.6-23,53.7-51.7,95.8c-32.6,49.8-44.1,82.4-30.7,90.1c199.3,128.4,389.1,260.7,389.1,270.2c0,7.7-11.5,26.8-23,44.1C8093.2,2337,8062.5,2321.7,7847.9,2177.9z"/><path d="M8079.8,1852.1c-130.3-69-245.3-130.3-253-139.9c-9.6-7.7,15.3-76.7,51.7-151.4c63.2-122.7,72.8-134.2,107.3-116.9c38.3,19.2,38.3,23-11.5,116.9c-26.8,53.7-46,99.7-42.2,103.5c11.5,9.6,128.4,67.1,138,67.1c5.7,0,28.8-36.4,51.7-80.5c51.7-103.5,46-97.7,92-82.4c40.2,11.5,38.3,13.4-9.6,109.2c-26.8,51.7-46,97.7-42.2,101.6c9.6,7.7,128.4,67.1,136.1,67.1c3.8,0,26.8-42.2,51.7-95.8c47.9-101.6,51.8-105.4,95.8-76.7c23,13.4,17.3,38.3-38.3,153.3c-36.4,76.7-70.9,139.9-76.7,143.7C8323.2,1974.8,8212,1921.1,8079.8,1852.1z"/><path d="M8323.2,1476.5c-28.8-28.8-47.9-76.7-55.6-145.7c-13.4-111.2-38.3-155.2-90.1-155.2c-53.7,0-82.4,51.7-80.5,145.7c1.9,78.6-1.9,86.2-40.2,80.5c-47.9-5.7-61.3-59.4-42.2-162.9c26.8-145.7,180.2-208.9,287.5-115c36.4,32.6,51.7,69,63.2,155.2c9.6,74.7,24.9,118.8,47.9,134.2c53.7,34.5,99.7-7.7,105.4-101.6c3.8-61.3,13.4-78.6,42.2-78.6c74.8,0,67.1,155.2-11.5,239.6C8489.9,1535.9,8384.5,1537.8,8323.2,1476.5z"/><path d="M3767.5,690.7c-118.8-44.1-207-109.2-262.6-191.7c-92-136.1-109.2-201.2-109.2-396.7c1.9-149.5,9.6-197.4,46-272.2c145.7-300.9,542.4-396.7,787.7-189.7l63.2,51.7l-70.9,78.6l-70.9,80.5l-69-47.9c-90.1-61.3-228.1-63.2-302.8-3.8c-174.4,136.1-162.9,538.6,17.3,649.7c76.7,46,195.5,46,272.2,0l61.3-36.4l72.8,74.7l74.7,76.7l-47.9,38.3C4099.1,706,3905.5,742.4,3767.5,690.7z"/><path d="M4459.4,121.5v-576.9l130.3,5.7l128.4,5.8l5.7,207l5.8,205.1h65.2c63.2,0,67.1-5.8,174.4-210.8l111.1-210.8h141.8c105.4,0,139.9,5.7,132.2,24.9c-5.8,11.5-61.3,113.1-124.6,224.2L5112.9-3.1l67.1,53.7c92,76.7,122.7,145.7,122.7,281.7c0,132.2-28.8,203.2-113.1,274.1c-78.6,65.2-210.8,90.1-490.6,90.1h-239.6V121.5z M4982.6,464.5c57.5-30.7,70.9-53.7,70.9-134.2c0-101.6-63.2-151.4-208.9-164.8L4727.7,154v166.7v164.8H4835C4892.5,485.6,4959.6,476,4982.6,464.5z"/><path d="M5536.5,127.2l5.7-571.1l122.6-5.8l122.7-5.7l-11.5,360.3c-7.7,197.4-17.3,381.4-23,408.2c-7.7,26.8,34.5-72.8,92-220.4c162.9-423.6,176.3-450.4,230-450.4c42.2,0,55.6,24.9,143.7,254.9c55.6,138,113.1,295.2,130.3,345c17.3,49.8,34.5,88.2,38.3,84.3c3.8-3.8-1.9-105.4-13.4-226.1c-9.6-120.7-17.3-291.3-13.4-381.4l5.8-162.9l120.7-5.8l118.8-5.7v576.9v576.9l-138-5.8l-138-5.7l-124.6-350.7c-70.9-199.3-130.3-339.2-138-325.8c-7.7,13.4-67.1,174.4-132.2,356.5l-120.7,329.7h-141.8h-139.9L5536.5,127.2z"/><path d="M1228-367.3c-5.7-15.3,0-93.9,15.3-176.3c23-132.2,30.7-149.5,70.9-155.2c42.2-5.7,44.1-1.9,32.6,61.3c-15.3,78.6-34.5,69,256.8,116.9c233.8,40.3,226.2,36.4,216.6,90.1l-9.6,46L1617.1-419c-107.3-17.2-218.5-38.3-245.3-42.1c-46-9.6-53.7-1.9-63.2,55.6C1295.1-336.6,1247.2-313.6,1228-367.3z"/><path d="M1758.9-729.5c-78.6-80.5-88.2-84.3-124.6-57.5c-95.8,67.1-264.5,7.7-287.5-103.5c-11.5-55.6,51.7-283.7,78.6-279.8c7.7,1.9,134.2,40.2,279.8,86.2c241.5,74.7,262.6,84.3,251.1,120.7c-17.2,57.5-15.3,57.5-115,23c-115-38.3-122.7-38.3-122.7,5.7c0,19.2,38.3,70.9,84.3,113.1c67.1,61.3,82.4,86.3,74.7,126.5c-5.7,26.8-15.3,49.8-23,49.8C1847.1-645.2,1804.9-683.5,1758.9-729.5z M1599.8-880.9c11.5-11.5,24.9-46,32.6-72.8c11.5-46,5.7-51.8-76.7-74.8c-47.9-13.4-92-21.1-95.8-15.3c-28.8,28.7-28.8,126.5,0,155.2C1496.3-850.3,1571.1-846.4,1599.8-880.9z"/><path d="M1728.3-1199c-128.4-59.4-216.6-185.9-191.7-277.9c51.7-182.1,207-233.8,408.2-134.2c153.3,76.7,214.7,210.8,153.3,343.1C2050.2-1162.6,1875.8-1130.1,1728.3-1199z M2017.7-1306.4c24.9-38.3,28.8-59.4,11.5-93.9c-55.6-124.6-287.5-208.9-368-136.1c-109.2,97.8,46,274.1,243.4,277.9C1971.7-1258.5,1992.7-1268.1,2017.7-1306.4z"/><path d="M1860.5-1783.6c-38.3-38.3-65.2-84.3-65.2-111.2c0-36.4,61.3-151.4,136.1-253c11.5-13.4,461.9,272.1,483,308.6c5.8,9.6-1.9,30.7-15.3,51.8c-24.9,32.6-30.7,30.7-113.1-24.9l-88.2-61.3l-72.8,78.6C2027.2-1693.5,1954.4-1689.7,1860.5-1783.6z M2082.8-1871.8l40.3-55.6l-80.5-53.7l-78.6-51.7l-36.4,44.1c-47.9,59.4-46,107.3,5.8,143.7C1996.6-1800.9,2036.8-1806.6,2082.8-1871.8z"/><path d="M2207.4-2124.8c-128.4-70.9-138-182.1-24.9-320.1c44.1-53.7,86.2-97.8,95.8-97.8c9.6,0,111.2,86.2,228.1,193.6c170.6,157.1,205.1,199.3,187.8,220.4c-32.6,40.2-57.5,32.6-134.2-42.2l-69-67.1l-67.1,67.1C2351.1-2097.9,2282.1-2082.6,2207.4-2124.8z M2370.3-2245.5l46-47.9l-55.6-57.5c-63.2-67.1-80.5-69-128.4-24.9c-42.2,38.3-44.1,97.7-1.9,143.8C2272.6-2184.2,2316.6-2188,2370.3-2245.5z"/><path d="M2709.5-2331.8c-26.8-21.1-107.3-107.3-178.2-193.6c-120.7-145.7-126.5-155.3-92-180.2c40.2-30.7,46-24.9,243.4,207c99.7,116.9,155.2,136.1,210.8,74.8c65.2-70.9,49.8-99.7-212.7-410.2c-23-26.8-23-40.2-3.8-63.2c13.4-15.3,30.7-28.8,38.3-28.8c19.2,0,253,279.8,285.6,339.2c49.8,93.9,7.7,212.7-95.8,266.4C2830.3-2283.8,2767-2285.8,2709.5-2331.8z"/><path d="M3090.9-2630.7c-67.1-67.1-65.2-139.9,7.7-266.4c63.2-111.2,59.4-162.9-11.5-162.9c-44.1,0-111.2,49.8-124.6,93.9c-11.5,34.5-74.7,3.8-74.7-34.5c0-55.6,103.5-138,187.8-149.5c65.2-9.6,84.3-1.9,126.5,38.3c67.1,67.1,63.3,143.7-11.5,264.5c-65.2,107.3-59.4,155.3,21.1,166.7c47.9,7.7,136.1-61.3,136.1-105.4c0-30.7,9.6-30.7,59.4-5.7c34.5,19.2,34.5,24.9,7.7,78.6C3347.8-2584.7,3181-2542.6,3090.9-2630.7z"/><path d="M7918.8-1222.1c-15.3-47.9-23-38.3,101.6-101.6c53.7-26.8,99.7-53.7,99.7-59.4c0-3.8-19.2-47.9-42.2-95.8c-36.4-76.7-38.3-90.1-15.3-105.4c44.1-28.8,46-24.9,92,67.1c46,95.8,57.5,99.7,139.9,57.5l55.6-30.7l-49.8-97.8c-40.3-78.6-44.1-99.6-23-113.1c13.4-9.6,30.7-17.3,38.3-17.3c13.4,0,149.5,253,149.5,277.9c0,11.5-490.6,258.7-515.6,258.7C7939.9-1181.8,7924.5-1199,7918.8-1222.1z"/><path d="M7673.5-1661c-84.3-124.6-88.2-134.2-51.7-153.3c30.7-17.2,44.1-7.7,95.8,67.1c32.6,47.9,65.2,86.3,70.9,86.3c5.8,0,40.2-17.2,76.7-40.2c70.9-44.1,74.7-24.9-26.8-182.1c-26.8-42.2-26.8-51.7-3.8-67.1c42.2-26.8,47.9-23,107.3,69c28.8,47.9,57.5,86.3,63.2,86.3c5.8,0,34.5-21.1,67.1-46l55.6-46l-53.7-80.5c-51.7-78.6-55.6-134.2-7.7-134.2c23,0,199.3,247.2,184,258.7c-24.9,19.2-475.3,316.2-481.1,316.2C7765.5-1526.8,7721.4-1586.2,7673.5-1661z"/><path d="M7435.8-1973.4c-90.1-105.4-95.8-122.7-70.9-147.6c26.8-24.9,38.3-19.2,103.5,55.6l72.8,84.3l59.4-46c30.7-24.9,57.5-53.7,57.5-61.3c1.9-9.6-24.9-49.8-59.4-92c-55.6-69-57.5-78.6-30.7-105.4c26.8-26.8,36.4-23,92,47.9c36.4,44.1,70.9,78.6,78.6,78.6c7.7,0,38.3-21.1,67.1-46l53.7-44.1l-70.9-86.2c-65.2-78.6-69-90.1-40.3-113.1c26.8-21.1,44.1-11.5,134.2,88.2c55.6,63.2,99.7,120.7,97.8,126.5c-3.8,11.5-431.2,381.4-440.8,381.4C7537.4-1852.6,7491.4-1906.3,7435.8-1973.4z"/><path d="M7175.2-2251.3c-143.8-147.6-139.9-279.8,13.4-421.7c139.9-130.3,266.4-124.6,404.4,15.3l72.8,74.8L7478-2372c-103.5,116.9-193.6,212.7-199.3,212.7C7271-2159.3,7225-2199.5,7175.2-2251.3z M7414.7-2442.9l130.3-147.6l-53.7-42.2c-28.8-24.9-74.8-44.1-103.5-44.1c-90.1,0-226.2,147.6-226.2,245.3c0,44.1,70.9,138,101.6,136.1C7276.7-2295.3,7343.8-2362.4,7414.7-2442.9z"/><path d="M6807.2-2534.9c-124.6-84.3-162.9-126.5-162.9-182.1c0-63.3,84.3-170.6,134.2-170.6c26.8,0,34.5-13.4,34.5-53.7c-3.8-109.2,80.5-189.7,170.6-166.7c67.1,15.3,235.7,130.3,231.9,155.2c-11.5,42.2-293.2,465.7-312.4,465.7C6891.5-2485.1,6849.3-2508.1,6807.2-2534.9z M6950.9-2728.5c0-28.8-76.7-82.4-118.8-82.4c-40.2,0-97.7,80.5-82.4,116.9c5.8,15.4,34.5,42.2,63.2,61.3c49.8,30.7,53.7,30.7,93.9-21.1C6931.8-2682.5,6950.9-2715.1,6950.9-2728.5z M7085.1-2939.3c0-13.4-26.8-38.3-59.4-53.7c-55.6-28.8-61.3-28.8-95.8,1.9c-53.7,47.9-44.1,93.9,24.9,138l61.3,40.3l34.5-51.7C7069.8-2893.3,7085.1-2927.8,7085.1-2939.3z"/><path d="M6515.8-2718.9c-32.6-15.3-38.3-30.7-30.7-80.5c7.7-53.7,1.9-63.2-59.4-93.9c-90.1-42.2-118.8-42.2-151.4,5.7c-23,34.5-34.5,36.4-76.7,17.3l-49.8-23l203.2-226.2c111.2-126.5,205.1-228.1,208.9-228.1c3.8,0,28.8,9.6,55.6,23c40.2,17.2,47.9,32.6,40.2,70.9c-5.8,26.8-24.9,153.3-42.1,279.8C6577.2-2703.6,6573.3-2694,6515.8-2718.9z M6540.8-3094.6l21.1-128.4l-92,105.4l-93.9,103.5l61.3,32.6c34.5,19.2,67.1,28.7,72.8,23C6515.8-2962.3,6529.3-3025.6,6540.8-3094.6z"/><path d="M5837.4-3000.7c-61.3-61.3-74.7-136.1-24.9-136.1c17.3,0,55.6,26.8,84.3,57.5c67.1,72.8,105.4,72.8,172.5,0c149.5-161,84.3-440.8-84.3-354.6c-40.2,21.1-51.8,21.1-76.7-7.7c-26.8-30.7-24.9-34.5,24.9-65.2c118.8-70.9,262.6-9.6,308.6,132.2c40.2,116.9-23,306.7-126.5,389.1C6034.8-2922.1,5908.3-2929.7,5837.4-3000.7z"/><path d="M5622.7-3035.1c-26.8-7.7-30.7-23-21.1-109.2c13.4-109.2-15.3-161-57.5-103.5c-93.9,128.4-147.6,170.6-208.9,164.8l-61.3-5.8l130.3-138l130.3-136.1l-67.1-136.1c-38.3-74.7-69-141.8-69-151.4s23-13.4,49.8-7.7c40.3,7.7,63.2,36.4,118.8,155.3l67.1,145.7l21.1-122.7c21.1-118.8,42.2-149.5,95.8-130.3c21.1,7.7,17.3,63.2-19.2,285.6c-24.9,149.5-46,279.8-46,289.4C5686-3021.7,5678.3-3021.7,5622.7-3035.1z"/></g></g>
</svg>