<?xml version="1.0" encoding="utf-8"?>
<!-- Svg Vector Icons : http://www.onlinewebfonts.com/icon -->
<!DOCTYPE svg PUBLIC "-//W3C//DTD SVG 1.1//EN" "http://www.w3.org/Graphics/SVG/1.1/DTD/svg11.dtd">
<svg version="1.1" xmlns="http://www.w3.org/2000/svg" xmlns:xlink="http://www.w3.org/1999/xlink" x="0px" y="0px" viewBox="0 0 1000 1000" enable-background="new 0 0 1000 1000" xml:space="preserve">
<metadata> Svg Vector Icons : http://www.onlinewebfonts.com/icon </metadata>
<g><g transform="translate(0.000000,512.000000) scale(0.100000,-0.100000)"><path d="M4095.4,4965.4c-360.4-61.4-498.4-107.4-628.8-209c-172.5-136.1-255-264.6-287.6-442.9c-19.2-105.4-9.6-216.6,61.3-651.8c17.3-99.7,30.7-195.5,30.7-210.9c0-17.3-59.4-61.4-138-105.4c-203.2-109.3-502.3-312.5-671-458.2l-147.6-126.5l-312.5,176.4c-350.8,199.4-460.1,243.5-602,245.4c-228.1,0-502.3-143.8-644.1-337.4c-36.4-51.8-138-214.7-222.4-364.3c-203.2-354.7-256.9-544.5-216.6-764.9c49.9-272.2,163-394.9,571.3-619.2c157.2-86.3,302.9-168.7,320.1-182.1c28.8-21.1,28.8-40.3-9.6-253.1c-28.8-166.8-42.2-325.9-46-582.8l-3.8-352.7L786.4-419.7C395.3-576.9,312.9-626.8,224.7-761c-93.9-141.9-126.5-260.7-124.6-465.9c0-180.2,1.9-186,138-527.2c74.8-189.8,166.8-389.2,203.2-442.9c126.5-185.9,310.6-310.6,523.4-352.7c157.2-30.7,235.8-11.5,638.4,151.4l327.8,134.2l272.2-274.1c149.5-151.4,345.1-329.7,435.2-394.9c90.1-65.2,164.9-120.8,168.7-124.6s-42.2-164.9-99.7-358.5c-132.3-435.2-139.9-550.2-49.8-740c67.1-139.9,214.7-295.2,356.6-371.9c51.8-26.8,245.4-95.8,429.4-151.4c306.7-92,352.7-99.7,527.2-101.6c216.6,0,350.8,40.3,494.6,149.6c136.1,103.5,180.2,189.8,299.1,579l109.3,362.3l239.6,13.4c270.3,13.4,521.5,51.8,782.2,122.7c99.7,24.9,186,40.3,191.7,30.7c195.5-287.6,421.8-590.5,483.1-644.2c111.2-93.9,243.5-136.1,429.4-136.1c232,0,335.5,42.2,695.9,283.7c479.3,324,615.4,498.5,632.6,814.8c11.5,209-7.7,255-262.6,617.3l-207,297.1l36.4,47.9c189.8,247.3,431.4,667.2,538.7,933.6l30.7,80.5l130.4-9.6c655.7-47.9,718.9-44.1,883.8,53.7c174.5,105.4,316.3,314.4,364.2,542.5c11.5,53.7,30.7,247.3,42.2,435.2c21.1,299.1,21.1,354.6-7.7,479.3c-53.7,243.5-201.3,442.8-391.1,533c-72.9,34.5-153.4,47.9-416,69c-178.3,13.4-356.6,24.9-394.9,26.8h-69l-40.3,153.4c-65.2,241.6-170.6,510-295.2,745.8c-111.2,212.8-113.1,218.5-78.6,256.9c19.2,23,126.5,141.9,237.7,262.7c253.1,276.1,278,312.5,316.3,462c49.9,191.7,3.8,412.2-126.5,605.8c-115,174.4-586.6,588.5-766.8,674.8c-138,67.1-151.5,69-354.7,69c-291.4,0-333.6-23-661.4-377.7c-141.9-151.5-262.6-281.8-270.3-289.5c-5.8-9.6-111.2,23-230,69c-249.2,97.8-506.1,170.6-753.4,214.7c-93.9,15.3-172.5,30.7-174.5,34.5c-1.9,1.9-26.8,159.1-55.6,348.9c-65.2,435.2-88.2,502.3-203.2,628.8c-153.4,168.7-383.4,264.6-623.1,260.7C4463.4,5019.1,4269.8,4994.2,4095.4,4965.4z M4766.3,4656.8c109.3-47.9,186-120.8,209-197.5c17.3-51.8,155.3-903,155.3-950.9c0-9.6,40.3-23,92-28.8c490.8-65.2,801.3-149.5,1190.5-322.1l218.5-97.8l40.3,49.8c23,26.8,168.7,187.9,325.9,356.6c318.2,345.1,373.8,383.4,546.4,362.3c145.7-17.3,266.5-92,504.2-308.7c253.1-230.1,314.4-299.1,362.3-404.5c38.3-84.4,47.9-228.1,17.3-306.7c-15.3-42.2-274.1-331.7-588.6-663.3l-84.3-88.2l93.9-153.4c214.7-343.2,373.8-730.4,462-1119.6l42.2-184l435.2-23c239.6-13.4,467.8-32.6,510-40.3c162.9-34.5,281.8-230.1,281.8-463.9c1.9-366.2-38.3-682.5-97.8-803.3c-42.2-82.4-172.5-203.2-237.7-220.5c-26.8-5.8-256.9,1.9-511.9,19.2c-256.9,17.3-471.6,24.9-479.3,17.3c-7.7-9.6-46-97.8-84.4-197.5c-140-364.3-325.9-688.3-571.3-993.1c-70.9-86.3-128.4-162.9-128.4-168.7c0-5.7,115-176.4,256.9-377.7c140-203.2,266.5-389.2,279.9-414.1c53.7-103.5-19.2-325.9-147.6-446.7c-109.3-101.6-586.6-416-680.6-448.6c-116.9-38.3-314.4-30.7-385.3,17.2c-26.9,17.3-170.6,207-320.2,421.8l-272.2,391.1l-195.5-63.3c-358.5-115-774.5-180.2-1169.4-180.2h-193.6l-134.2-444.8c-74.8-245.4-151.5-471.6-172.5-502.3c-59.4-86.3-170.6-134.2-329.7-141.9c-118.9-7.7-178.3,3.8-450.5,82.4c-325.9,93.9-387.3,118.9-487,193.6c-72.8,57.5-161,214.7-161,289.5c0,32.6,59.4,255,134.2,496.5c72.8,241.6,134.2,448.6,134.2,460.1c0,11.5-74.8,70.9-166.8,134.2c-327.8,220.5-550.2,423.7-805.2,730.4l-161,197.5l-70.9-30.7c-452.5-191.7-839.7-333.6-910.6-333.6c-111.2,0-268.4,95.9-347,210.9c-32.6,47.9-115,222.4-180.2,389.2c-109.3,268.4-122.7,318.2-122.7,433.3c0,141.9,40.2,245.4,122.7,324c26.8,23,249.2,124.6,494.6,222.4L1476.6-483l1.9,485c0,462,3.8,500.4,55.6,736.2c30.7,138,55.6,266.5,57.5,285.6c1.9,30.7-88.2,90.1-429.4,281.8c-494.6,279.9-519.6,304.8-533,506.1c-11.5,161,11.5,220.5,199.4,548.3c226.2,391.1,352.8,502.3,577.1,502.3c74.8,0,302.9-115,899.1-458.2l61.3-34.5l159.1,149.5c293.3,272.2,644.2,510,956.6,648c99.7,44.1,134.2,69,134.2,95.9c0,21.1-30.7,232-67.1,469.7c-78.6,504.2-78.6,521.5-28.8,617.3c82.4,164.9,228.1,237.7,592.4,299.1C4455.8,4706.6,4653.2,4708.6,4766.3,4656.8z"/><path d="M4586.1,2605.5c-544.5-74.8-1031.4-314.4-1432.1-701.7c-513.8-498.4-772.6-1111.9-772.6-1836.6c0-439,82.4-780.3,279.9-1163.7c435.2-849.3,1297.9-1376.5,2246.8-1376.5c1407.2,0,2542.1,1134.9,2542.1,2544c0,1094.7-694,2068.6-1725.4,2421.3C5400.9,2601.7,4912,2651.5,4586.1,2605.5z M5437.3,2247c230.1-61.4,439-149.5,611.6-255l159.1-97.8l-97.8-99.7c-53.7-53.7-97.8-103.5-97.8-111.2c0-5.7,57.5-109.3,126.5-226.2c69-116.9,122.7-216.6,118.9-218.5c-1.9-3.8-57.5-19.2-122.7-34.5c-115-28.8-117-28.8-310.6,34.5c-266.5,88.2-492.7,126.5-732.4,126.5c-256.9,0-452.4-59.4-657.6-201.3l-138-95.9l-163,11.5c-184.1,11.5-341.2,63.3-435.2,143.8l-61.4,53.7l163,270.3l164.9,272.2l-61.3,107.4l-61.4,105.4l161,76.7c155.3,72.8,373.8,141.9,550.2,172.5c47.9,9.6,235.8,13.4,414.1,11.5C5220.7,2287.2,5326.1,2277.6,5437.3,2247z M5485.3,1138.9c84.3-17.3,237.7-61.3,339.3-97.8l186-65.2l178.3,46c97.8,26.8,178.3,46,180.2,46C6401.6,1020,6990.2,11.6,6990.2,2.1c0-15.3-391.1-308.7-412.2-308.7c-5.7,0-47.9,28.8-92,65.2C6301.9-93.8,5232.2,609.8,5052,701.8c-101.6,49.8-239.6,61.3-310.6,24.9c-23-13.4-124.6-97.8-224.3-189.8c-210.9-193.6-314.4-268.4-371.9-268.4c-258.8,0,117,602,508,814.8C4852.6,1190.6,5142.1,1209.8,5485.3,1138.9z M3784.8,960.6c55.6-23,157.2-47.9,226.2-55.6l122.7-13.4l-69-95.9c-243.5-341.2-253-598.1-23-688.2c159.1-65.2,264.6-13.4,590.5,283.7c180.2,164.9,207,184,258.8,174.5c67.1-11.5,230.1-113.1,901-557.9c703.6-465.8,782.2-536.8,751.5-663.3c-17.3-67.1-109.3-103.5-191.7-78.6c-34.5,9.6-233.9,128.4-444.8,264.6c-212.8,134.2-404.5,243.5-429.4,243.5c-53.7,1.9-80.5-34.5-74.8-99.7c5.7-38.3,74.8-92,398.8-299.1c295.2-187.9,394.9-260.7,398.8-293.3c9.6-65.2-44.1-132.3-118.9-145.7c-57.5-11.5-99.7,5.7-339.3,141.9c-151.4,86.3-289.5,155.3-308.7,155.3c-49.8,0-99.7-84.4-76.7-128.4c11.5-19.2,128.4-95.9,260.7-168.7c149.6-82.4,241.6-145.7,241.6-164.9c0-15.3-21.1-49.8-46-72.9c-74.8-70.9-155.3-61.3-333.6,44.1c-174.5,101.6-243.5,107.4-264.6,21.1c-15.3-61.3,9.6-90.1,138-164.9c57.5-32.6,103.5-65.2,103.5-72.8c0-26.8-92-116.9-118.9-116.9c-13.4,0-107.4,46-207.1,101.6c-147.6,82.4-180.2,109.3-174.5,138c3.8,21.1,9.6,86.3,9.6,143.8c1.9,126.5-51.7,214.7-151.4,251.1c-61.4,23-65.2,28.8-55.6,92c15.3,103.5-57.5,230-159.1,279.9c-76.7,36.4-80.5,42.2-82.4,126.5c0,161-128.5,293.3-283.7,293.3c-120.8,0-195.6-46-295.2-184c-76.7-107.4-82.4-111.2-111.2-76.7c-86.3,109.3-249.2,136.1-373.8,63.3c-69-40.3-70.9-40.3-120.8-3.8c-134.2,95.9-414.1,431.3-398.8,473.5c7.7,23,444.8,745.8,561.7,933.6l46,70.9l70.9-55.6C3650.6,1025.8,3729.2,981.7,3784.8,960.6z M2943.2-237.6c65.2-78.6,163-182.1,220.5-230.1l101.6-88.2l-47.9-95.8c-51.8-107.4-47.9-178.3,15.3-281.8c46-78.6,113.1-120.8,205.1-134.2c63.3-7.7,78.6-19.2,105.4-84.4c34.5-82.4,124.6-145.7,232-163c57.5-9.6,76.7-24.9,97.8-72.8c34.5-84.3,134.2-163,224.3-176.4c63.3-11.5,80.5-23,101.6-74.8c49.9-118.9,212.8-199.4,333.6-164.9c99.7,28.8,118.9,47.9,283.7,266.5c1.9,3.8,99.7-46,214.7-109.3c180.2-99.7,222.4-116.9,306.7-116.9c82.4,0,109.3,9.6,166.8,59.4c36.4,32.6,82.4,84.4,99.7,115c26.8,46,46,55.6,107.3,55.6c134.2,0,262.7,92,318.3,226.2c19.2,44.1,40.3,59.4,90.1,67.1c136.1,23,224.3,111.2,281.8,287.6c7.7,21.1,32.6,32.6,67.1,32.6c65.2,0,164.9,63.3,222.4,139.9c42.2,55.6,55.6,209,26.8,291.4c-11.5,32.6,17.3,61.4,178.3,180.2c126.5,92,199.4,134.2,210.9,122.7c44.1-44.1-84.3-496.5-210.9-749.6c-563.6-1115.8-1936.3-1551-3031-960.5c-289.5,157.2-603.9,439-784.1,705.5c-130.4,189.8-264.6,490.8-322.1,717l-51.8,207.1l46,86.3c26.8,46,51.8,84.4,59.4,84.4C2818.5-95.7,2878-159,2943.2-237.6z M4306.2-383.3c21.1-21.1,38.3-49.9,38.3-65.2c0-47.9-458.2-651.8-510-672.9c-59.4-21.1-105.4,3.8-130.4,70.9c-15.3,44.1,9.6,84.3,226.2,377.7C4193.1-321.9,4221.9-298.9,4306.2-383.3z M3673.6-536.7c21.1-21.1,38.3-51.8,38.3-69c0-32.6-120.8-210.9-170.6-251.1c-63.3-53.7-174.4-3.8-174.4,76.7c0,36.4,136.1,235.8,180.2,266.5C3583.5-488.7,3635.2-498.3,3673.6-536.7z M4536.3-766.7c21.1-21.1,38.3-53.7,38.3-72.9c0-30.7-256.9-396.8-350.8-496.5c-70.9-76.7-186-40.3-186,59.4c0,24.9,57.5,120.8,128.5,214.7C4434.7-701.5,4455.8-686.2,4536.3-766.7z M4777.8-1159.7c17.3-26.8,26.8-59.4,21.1-74.8c-30.7-76.7-276.1-377.7-318.3-389.2c-57.5-13.4-141.9,70.9-122.7,124.6c5.7,17.3,70.9,113.1,143.8,210.9c113.1,153.4,138,176.4,187.9,176.4C4728-1111.8,4756.8-1127.1,4777.8-1159.7z"/></g></g>
</svg>