<?xml version="1.0" encoding="iso-8859-1"?>
<!-- Uploaded to: SVG Repo, www.svgrepo.com, Generator: SVG Repo Mixer Tools -->
<svg height="800px" width="800px" version="1.1" id="Layer_1" xmlns="http://www.w3.org/2000/svg" xmlns:xlink="http://www.w3.org/1999/xlink" 
	 viewBox="0 0 512 512" xml:space="preserve">
<path style="fill:#FF5050;" d="M256,8.591C119.36,8.591,8.591,119.36,8.591,256S119.36,503.409,256,503.409
	S503.409,392.64,503.409,256S392.64,8.591,256,8.591z"/>
<path style="fill:#FFFFFF;" d="M384.286,219.347H127.714c-10.121,0-18.327,8.205-18.327,18.327v36.653
	c0,10.121,8.206,18.327,18.327,18.327h256.573c10.121,0,18.327-8.206,18.327-18.327v-36.653
	C402.613,227.551,394.407,219.347,384.286,219.347z"/>
<path style="fill:#C84146;" d="M301.053,458.357c-136.64,0-247.409-110.77-247.409-247.409c0-56.834,19.211-109.155,51.429-150.928
	C46.416,105.26,8.591,176.194,8.591,256c0,136.64,110.77,247.409,247.409,247.409c79.806,0,150.74-37.825,195.98-96.482
	C410.207,439.146,357.888,458.357,301.053,458.357z"/>
<path d="M437.02,74.98C388.668,26.629,324.38,0,256,0S123.332,26.629,74.98,74.98C26.629,123.332,0,187.62,0,256
	s26.629,132.668,74.98,181.02C123.332,485.371,187.62,512,256,512s132.668-26.629,181.02-74.98C485.371,388.668,512,324.38,512,256
	S485.371,123.332,437.02,74.98z M256,494.819C124.315,494.819,17.181,387.685,17.181,256S124.315,17.181,256,17.181
	S494.819,124.315,494.819,256S387.685,494.819,256,494.819z"/>
<path d="M384.286,210.756h-27.489c-4.744,0-8.591,3.846-8.591,8.591s3.846,8.591,8.591,8.591h27.489
	c5.369,0,9.736,4.367,9.736,9.736v36.653c0,5.369-4.367,9.736-9.736,9.736H127.714c-5.369,0-9.736-4.367-9.736-9.736v-36.653
	c0-5.369,4.367-9.736,9.736-9.736h192.43c4.744,0,8.591-3.846,8.591-8.591s-3.846-8.591-8.591-8.591h-192.43
	c-14.842,0-26.917,12.075-26.917,26.917v36.653c0,14.842,12.075,26.917,26.917,26.917h256.573c14.842,0,26.917-12.075,26.917-26.917
	v-36.653C411.204,222.831,399.129,210.756,384.286,210.756z"/>
<path d="M317.602,63.388c5.894,1.884,11.775,4.069,17.476,6.493c1.097,0.467,2.237,0.688,3.359,0.688
	c3.341,0,6.519-1.961,7.909-5.23c1.858-4.366-0.176-9.411-4.542-11.267c-6.189-2.633-12.572-5.004-18.971-7.05
	c-4.518-1.444-9.355,1.049-10.798,5.568C310.589,57.11,313.082,61.945,317.602,63.388z"/>
<path d="M448.655,151.049c-18.397-33.699-45.437-62.125-78.201-82.203c-4.048-2.48-9.334-1.208-11.814,2.836
	c-2.479,4.046-1.21,9.334,2.836,11.814c30.207,18.511,55.138,44.717,72.098,75.786c1.56,2.858,4.507,4.476,7.548,4.476
	c1.391,0,2.802-0.339,4.109-1.051C449.395,160.432,450.929,155.214,448.655,151.049z"/>
<path d="M212.039,453.374c-56.898-12.614-105.607-49.319-133.638-100.702c-2.271-4.165-7.491-5.7-11.656-3.427
	c-4.165,2.271-5.7,7.491-3.427,11.656c30.407,55.74,83.258,95.56,145.001,109.248c0.627,0.139,1.252,0.205,1.867,0.205
	c3.939,0,7.491-2.727,8.379-6.733C219.593,458.989,216.671,454.401,212.039,453.374z"/>
</svg>