<?xml version="1.0" encoding="utf-8"?>
<!-- Uploaded to: SVG Repo, www.svgrepo.com, Generator: SVG Repo Mixer Tools -->
<svg width="800px" height="800px" viewBox="0 0 1024 1024" class="icon"  version="1.1" xmlns="http://www.w3.org/2000/svg"><path d="M705.3 177.1c-13.2-7.6-27.8-11.5-42.7-11.5-7.4 0-14.9 1-22.3 3-21.7 5.8-39.9 19.6-51.4 39 1 0.5 2 1 3 1.6l142.5 82.3c1 0.6 1.9 1.2 2.8 1.8 22.9-40.9 8.7-92.7-31.9-116.2z" fill="#FFBC00" /><path d="M774.2 221.4c-8-29.8-27.1-54.8-53.9-70.2-26.8-15.4-57.9-19.5-87.8-11.6-29.8 8-54.8 27.1-70.2 53.9-2.2 3.8-4.1 7.6-5.8 11.5-11.1 3.3-20.3 10.6-26.1 20.6L309.6 608.1c-4.8 8.4-6.6 17.6-5.8 26.6-4.9 5.9-7.6 14-7.6 23.4v171.8c0 13.3 5.5 24.1 15 29.7l0.1 0.1s0.1 0 0.1 0.1c4.3 2.4 9.1 3.7 14.1 3.7 6.2 0 12.7-1.9 19.1-5.5l148.8-85.9c8.1-4.7 13.8-11.1 16.5-18.3 8.4-3.9 15.4-10.2 20.1-18.3L750.8 353c6-10.4 7.3-22.1 4.8-32.9 2.5-3.4 4.9-7 7-10.8 15.5-26.9 19.6-58.1 11.6-87.9z m-37 71.8c-0.9-0.6-1.9-1.2-2.8-1.8l-142.5-82.3c-1-0.6-2-1.1-3-1.6 11.5-19.3 29.7-33.1 51.4-39 7.4-2 14.9-3 22.3-3 14.8 0 29.5 3.9 42.7 11.5 40.6 23.6 54.8 75.4 31.9 116.2z m-180.8-52.6c2-3.4 5.2-5.9 9.1-7 1.3-0.4 2.6-0.5 4-0.5 2.6 0 5.1 0.7 7.4 2l142.5 82.3c5 2.9 7.7 8.2 7.5 13.6l-263.4 70.6 92.9-161z m-78 505.4l-148.8 85.9c-1.3 0.8-2.4 1.2-3.1 1.4-0.2-0.7-0.4-1.8-0.4-3.4V658c0-1.6 0.2-2.7 0.4-3.4 0.7 0.2 1.8 0.6 3.1 1.4l148.8 85.9c1.3 0.8 2.2 1.5 2.7 2-0.4 0.6-1.3 1.3-2.7 2.1z m-167-117.8s-0.1 0-0.1 0.1l-0.1 0.1v-0.4l0.2 0.2z m200.3 115.9v-0.2-0.2l0.3 0.2-0.3 0.2z m-7.7-23.8c-0.5 0.9-1.1 1.7-1.7 2.4-2.5-2.5-5.5-4.8-8.9-6.8L446.8 689l89-23.8-31.8 55.1z m53.1-91.8l-147 39.4-62.7-36.2 245.8-65.9-36.1 62.7z m57.4-99.4l-265.7 71.2 36.2-62.7 265.7-71.2-36.2 62.7z m57.3-99.4l-265.7 71.2 36.2-62.7L708 367l-36.2 62.7z" fill="#46287C" /><path d="M406.1 500.9l265.7-71.2L708 367l-265.7 71.2zM726.9 330.9c0.2-5.4-2.5-10.7-7.5-13.6L576.9 235c-2.3-1.3-4.8-2-7.4-2-1.3 0-2.6 0.2-4 0.5-3.9 1-7.1 3.5-9.1 7l-92.9 160.9 263.4-70.5z m-174.3-53.3c9.1-15.7 29.2-21.1 44.9-12 15.7 9.1 21.1 29.2 12 44.9-9.1 15.7-29.2 21.1-44.9 12-15.7-9.1-21.1-29.2-12-44.9zM348.7 600.3l265.8-71.2 36.1-62.7-265.7 71.2zM493.4 716c3.4 2 6.4 4.2 8.9 6.8 0.6-0.7 1.2-1.5 1.7-2.4l31.8-55.1-89 23.8 46.6 26.9zM410.1 667.8l147-39.3 36.1-62.7-245.7 65.9zM311.3 859.6c-0.1 0-0.1 0 0 0-0.1 0.2 0 0.2 0 0.2 0.1-0.1 0.1-0.1 0-0.2zM311.3 628.3c0-0.1 0-0.1 0 0 0.1-0.1 0.1-0.1 0-0.2-0.1 0-0.1 0-0.1 0.1s0 0.1 0.1 0.1zM355.6 671c-14.3-8.2-26.5-15.3-27.2-15.6-0.7-0.3-2-0.4-2.1 0.1-0.1 0.5-0.2 16-0.2 32.5v111.8c0 16.5 0 30.6 0.1 31.3 0.1 0.7 0.7 1.9 1.2 1.7 0.5-0.2 13.9-7.8 28.2-16.1l96.8-55.9c14.3-8.2 26.5-15.3 27.1-15.7 0.6-0.4 1.3-1.5 0.9-1.9-0.4-0.3-13.7-8.1-28-16.4L355.6 671zM511.7 743.9c0 0.1 0 0.1 0 0 0 0.1 0.1 0.1 0.1 0.1 0.1 0 0.1-0.1 0-0.2-0.1 0-0.1 0-0.1 0.1z" fill="#FFBC00" /><path d="M564.589235 322.494987a32.9 32.9 0 1 0 32.9-56.984471 32.9 32.9 0 1 0-32.9 56.984471Z" fill="#FFFFFF" /></svg>