<?xml version="1.0" encoding="utf-8"?>
<!-- Svg Vector Icons : http://www.onlinewebfonts.com/icon -->
<!DOCTYPE svg PUBLIC "-//W3C//DTD SVG 1.1//EN" "http://www.w3.org/Graphics/SVG/1.1/DTD/svg11.dtd">
<svg version="1.1" xmlns="http://www.w3.org/2000/svg" xmlns:xlink="http://www.w3.org/1999/xlink" x="0px" y="0px" viewBox="0 0 1000 1000" enable-background="new 0 0 1000 1000" xml:space="preserve">
<metadata> Svg Vector Icons : http://www.onlinewebfonts.com/icon </metadata>
<g><path d="M969.6,542.4c0-0.2,0-0.3,0-0.5c0-0.3,0-0.5-0.1-0.8c0-0.2,0-0.4-0.1-0.5c-0.1-0.3-0.1-0.7-0.2-1c0-0.1-0.1-0.3-0.1-0.4c-0.1-0.3-0.2-0.6-0.3-0.9c0-0.1-0.1-0.2-0.1-0.3c-0.1-0.4-0.3-0.8-0.5-1.2c0,0,0-0.1-0.1-0.1c-0.4-0.9-0.9-1.7-1.4-2.4c0,0-0.1-0.1-0.1-0.1c-0.2-0.3-0.5-0.7-0.8-1c0,0-0.1-0.1-0.1-0.1c-0.3-0.3-0.6-0.6-0.9-0.9c-0.1-0.1-0.1-0.1-0.2-0.2c-0.3-0.2-0.5-0.4-0.8-0.7c-0.1-0.1-0.1-0.1-0.2-0.2c-0.3-0.3-0.7-0.5-1.1-0.7c0,0,0,0-0.1,0c-0.2-0.1-0.5-0.3-0.7-0.4l-110-56.8c-0.1,0-0.2-0.1-0.3-0.1l-100.7-52V130.2c0-0.1,0-0.1,0-0.2c0-0.2,0-0.5,0-0.7c0-0.2,0-0.4-0.1-0.6c0-0.2,0-0.4-0.1-0.6c-0.1-0.4-0.1-0.7-0.2-1.1c0-0.2-0.1-0.3-0.1-0.5c-0.1-0.3-0.2-0.6-0.2-0.9c0-0.1-0.1-0.3-0.1-0.4c-0.3-0.8-0.7-1.7-1.1-2.4c0-0.1-0.1-0.1-0.1-0.2c-0.5-0.8-1-1.5-1.6-2.2c0,0,0,0-0.1-0.1c-1.3-1.4-2.9-2.6-4.7-3.4L506.2,11.3c-3.9-1.7-8.3-1.7-12.2,0.2L275,117.2c-0.2,0.1-0.4,0.2-0.7,0.3c0,0-0.1,0-0.1,0c-0.8,0.5-1.6,1-2.3,1.6c0,0,0,0,0,0c-0.7,0.6-1.4,1.3-2,2c0,0,0,0,0,0c-0.6,0.8-1.1,1.6-1.6,2.5c0,0,0,0,0,0c0,0,0,0,0,0c-0.4,0.9-0.8,1.8-1,2.7c0,0,0,0,0,0.1c-0.1,0.4-0.2,0.8-0.3,1.3c0,0.1,0,0.1,0,0.2c-0.1,0.8-0.2,1.5-0.2,2.3v290.5L38.6,529.7c-0.1,0-0.1,0.1-0.2,0.1c-0.1,0.1-0.3,0.1-0.4,0.2c-0.2,0.1-0.5,0.3-0.7,0.4c-0.1,0.1-0.3,0.2-0.4,0.2c-0.3,0.2-0.7,0.4-1,0.7c-0.1,0-0.1,0.1-0.2,0.2c-0.3,0.2-0.5,0.4-0.8,0.7c-0.1,0.1-0.2,0.2-0.3,0.3c-0.3,0.3-0.5,0.5-0.8,0.8c0,0-0.1,0.1-0.1,0.1c-0.3,0.4-0.6,0.7-0.9,1.1c0,0,0,0,0,0c-0.8,1.2-1.5,2.5-1.9,3.8c0,0,0,0.1,0,0.1c-0.1,0.4-0.3,0.9-0.3,1.3c0,0,0,0.1,0,0.1c-0.1,0.4-0.1,0.8-0.2,1.1c0,0.1,0,0.2,0,0.4c0,0.3-0.1,0.7-0.1,1c0,0.1,0,0.2,0,0.3c0,0,0,0.1,0,0.1v299.5c0,5.2,2.8,10,7.3,12.5l234.8,133.4c0,0,0,0,0,0c0.5,0.3,1.1,0.6,1.6,0.8c0.1,0,0.1,0,0.2,0.1c0.5,0.2,0.9,0.3,1.4,0.5c0.2,0,0.3,0.1,0.5,0.1c0.4,0.1,0.8,0.2,1.3,0.2c0.2,0,0.3,0.1,0.5,0.1c0.6,0.1,1.1,0.1,1.7,0.1c0.4,0,0.9,0,1.3-0.1c0.1,0,0.2,0,0.3,0c0.4,0,0.8-0.1,1.3-0.2c0,0,0,0,0,0c0.4-0.1,0.8-0.2,1.2-0.3c0.1,0,0.2-0.1,0.3-0.1c0.4-0.1,0.7-0.2,1.1-0.4c0,0,0.1,0,0.1-0.1c0.4-0.2,0.7-0.3,1.1-0.5c0.1-0.1,0.3-0.1,0.4-0.2c0.1-0.1,0.2-0.1,0.3-0.2l213.2-129l227.4,129.2c0,0,0,0,0.1,0c0.5,0.3,1.1,0.6,1.6,0.8c0.1,0,0.1,0,0.2,0.1c0.5,0.2,0.9,0.3,1.4,0.5c0.2,0,0.3,0.1,0.5,0.1c0.4,0.1,0.8,0.2,1.2,0.2c0.2,0,0.3,0.1,0.5,0.1c0.6,0.1,1.1,0.1,1.7,0.1c0.4,0,0.9,0,1.3-0.1c0.1,0,0.2,0,0.3,0c0.4,0,0.8-0.1,1.3-0.2c0,0,0,0,0,0c0.4-0.1,0.8-0.2,1.2-0.3c0.1,0,0.2-0.1,0.3-0.1c0.4-0.1,0.7-0.2,1-0.4c0.1,0,0.1,0,0.2-0.1c0.4-0.2,0.7-0.3,1.1-0.5c0.1-0.1,0.3-0.2,0.4-0.2c0.1-0.1,0.2-0.1,0.3-0.2l220.4-133.4c4.3-2.6,6.9-7.3,6.9-12.3V542.7C969.6,542.6,969.6,542.5,969.6,542.4z M734.6,656.8l-87.1-48.5l197.7-106.2l80.3,41.5L734.6,656.8z M531.5,543.7l204.7-97.9l77.9,40.2L617.5,591.6L531.5,543.7z M76.2,543.7L281,445.8l4.9,2.5l73.1,37.7L162.3,591.6L76.2,543.7z M376.4,194.2v66.3c0,8,6.4,14.4,14.4,14.4c8,0,14.4-6.4,14.4-14.4v-51.8l80.7,40.7V519l-190.2-98.1V153.6L376.4,194.2z M701.8,130.4l-201.4,94.1l-77.8-39.2l188.2-95.6L701.8,130.4z M722.1,420.6l-207.4,99.1v-270l207.4-96.9V420.6z M389.9,502.1l80.4,41.5L279.4,656.8l-87.2-48.5L389.9,502.1z M294,681.6L485.6,568v266.1L294,950V681.6z M500.5,40.3L577,74.6l-186.3,94.6l-76.9-38.8L500.5,40.3z M59.2,567.2l88.6,49.3v76.9c0,8,6.4,14.4,14.4,14.4c8,0,14.4-6.4,14.4-14.4v-60.9l88.6,49.3v268.9l-206-117V567.2z M514.4,567.2l88.6,49.3v76.9c0,8,6.4,14.4,14.4,14.4c8,0,14.4-6.4,14.4-14.4v-60.9l88.6,49.3v268.9l-206-117V567.2z M749.2,950V681.6L940.8,568v266.1L749.2,950z"/></g>
</svg>