<svg fill="#000000" version="1.1" id="Capa_1" xmlns="http://www.w3.org/2000/svg" xmlns:xlink="http://www.w3.org/1999/xlink" viewBox="0 0 60 60" xml:space="preserve"><g id="SVGRepo_bgCarrier" stroke-width="0"></g><g id="SVGRepo_tracerCarrier" stroke-linecap="round" stroke-linejoin="round"></g><g id="SVGRepo_iconCarrier"> <g> <g> <path d="M59,0H1C0.4,0,0,0.4,0,1v13h2v-4h56v4h2V1C60,0.4,59.6,0,59,0z M2,8V2h56v6H2z"></path> <rect x="4" y="4" width="4" height="2"></rect> <rect x="10" y="4" width="4" height="2"></rect> <path d="M56,19h2v-2H48v2h2v10h-4v-9c0-0.6-0.4-1-1-1H32v-3c0-0.6-0.4-1-1-1h-6h-4h-6c-0.6,0-1,0.4-1,1v13h-4V19h2v-2H2v2h2v39H0 v2h4h2h2h2h40h2h2h2h4v-2h-4V19z M10,34h40v15h-5v-9c0-0.6-0.4-1-1-1h-5h-4h-5H16c-0.6,0-1,0.4-1,1v9h-5V34z M17,49v-8h12v8H17z M31,41h3v5c0,0.6,0.4,1,1,1h4c0.6,0,1-0.4,1-1v-5h3v8H31V41z M36,41h2v4h-2V41z M10,51h6h14h14h6v1H10V51z M44,21v8H32v-8H44z M24,17v4h-2v-4H24z M16,17h4v5c0,0.6,0.4,1,1,1h4c0.6,0,1-0.4,1-1v-5h4v3v9H16V17z M15,31h16h14h5v1H10v-1H15z M6,58V19h2v39H6z M10,58v-4h40v4H10z M52,58V19h2v39H52z"></path> <rect x="34" y="24" width="2" height="2"></rect> <rect x="38" y="24" width="2" height="2"></rect> <rect x="19" y="45" width="2" height="2"></rect> <rect x="23" y="45" width="2" height="2"></rect> </g> </g> </g></svg>
