<?xml version="1.0" encoding="utf-8"?>
<!-- Uploaded to: SVG Repo, www.svgrepo.com, Generator: SVG Repo Mixer Tools -->
<svg width="800px" height="800px" viewBox="0 0 1024 1024" class="icon"  version="1.1" xmlns="http://www.w3.org/2000/svg"><path d="M856.906011 242.071064l-97.660231-97.726783c-31.252052-31.105636-75.462396-48.946838-121.29867-48.946838-45.902827 0-90.1101 17.841202-121.362152 49.076872l-16.734381 16.73131c-32.422353 32.295391-50.263554 75.398915-50.263555 121.298671 0 43.103524 15.757595 83.795799 44.469388 115.43795L140.711536 751.320908c-14.584223 14.584223-22.658582 34.052378-22.658582 54.690835 0 20.641528 8.07436 40.043131 22.59203 54.530084 14.584223 14.647703 33.985826 22.722063 54.757387 22.722063 17.904683 0 34.899131-6.054234 48.636601-17.254515l40.043131 40.043131c14.584223 14.714256 34.049306 22.788616 54.754315 22.788616 20.641528 0 40.043131-8.07436 54.627354-22.658582 15.364423-15.364423 22.852097-35.615851 22.59203-55.830419 0.393172 0.063481 0.71672 0.063481 1.10682 0.06348 20.641528 0 40.043131-8.070264 54.693906-22.654486 14.584223-14.584223 22.658582-33.988897 22.658582-54.627354 0-20.705009-8.07436-40.106612-22.658582-54.723599L432.008959 678.562593l171.365639-171.302158c31.705633 28.778345 72.33545 44.599421 115.371398 44.599421 45.836274 0 88.939799-17.904683 121.428704-50.330107l16.797863-16.861344c66.80135-66.997936 66.737869-175.859472-0.066552-242.597341z" fill="#27323A" /><path d="M821.553298 277.426848l-97.596749-97.663302c-46.03286-45.902827-126.05257-45.836274-172.018878 0.063481l-16.797863 16.734382c-47.399747 47.333195-47.399747 124.552578 0 172.015806l29.688579 29.691651c-0.323548 0.323548-0.780201 0.453581-1.170301 0.780201l-3.54981 3.533428 38.609692 38.609691 3.54981-3.533428c0.323548-0.3901 0.453581-0.846753 0.780201-1.170301l29.688579 29.688579c22.985202 22.981106 53.587086 35.679332 86.009438 35.679332 32.488905 0 63.09079-12.697202 86.07292-35.679332l16.734382-16.797862c47.333195-47.529781 47.333195-124.685683 0-171.952326z" fill="#F4CE73" /><path d="M685.346857 218.373238c-12.630649-12.630649-29.562641-19.664742-47.399747-19.664741-17.971235 0-34.769098 7.034092-47.463228 19.664741l-16.734382 16.797863c-26.175628 26.108052-26.175628 68.688371 0 94.862975l97.596749 97.533268c25.327851 25.392356 69.538196 25.392356 94.862976 0l16.734381-16.734381c26.109076-26.171533 26.109076-68.754923 0-94.862976l-97.596749-97.596749z" fill="#27323A" /><path d="M747.587822 375.481274l-16.73131 16.73131c-2.733774 2.736845-7.227607 4.363799-12.043963 4.363799-4.883933 0-9.377766-1.626954-12.110516-4.363799l-97.596749-97.533268c-4.300318-4.360728-4.950486-9.440223-4.950485-12.107444 0-2.670293 0.650167-7.750812 4.950485-12.048059l16.73131-16.797862c3.32046-3.253908 7.487673-5.013966 12.110516-5.013967s8.791079 1.760059 12.043963 5.013967l97.596749 97.599821c6.643992 6.64092 6.643992 17.514582 0 24.155502z" fill="#FFFFFF" /><path d="M602.984498 436.602109l-38.286144-38.252356c-0.292831 0.260067-0.682932 0.406482-1.040268 0.700337L176.064249 786.673621c-10.677076 10.677076-10.677076 27.931592 0 38.54621 5.340586 5.337514 12.307102 8.006783 19.338122 8.006784 6.96754 0 13.934055-2.670293 19.27157-8.006784l29.688578-29.625098 75.20233 75.232022c5.274033 5.340586 12.240549 8.010879 19.271569 8.010879 6.96754 0 13.934055-2.670293 19.274642-8.010879 10.677076-10.677076 10.677076-27.962308 0-38.639384l39.846545-39.783064c10.610524 10.677076 27.931592 10.613595 38.543139 0 10.677076-10.677076 10.677076-27.931592 0-38.609692L361.300462 678.562593l240.967316-240.903835c0.293855-0.33993 0.453581-0.733102 0.71672-1.056649z" fill="#79CCBF" /></svg>