<?xml version="1.0" encoding="utf-8"?>
<!-- Uploaded to: SVG Repo, www.svgrepo.com, Generator: SVG Repo Mixer Tools -->
<svg version="1.1" id="Uploaded to svgrepo.com" xmlns="http://www.w3.org/2000/svg" xmlns:xlink="http://www.w3.org/1999/xlink" 
	 width="800px" height="800px" viewBox="0 0 32 32" xml:space="preserve">
<style type="text/css">
	.avocado_een{fill:#231F20;}
	.avocado_zes{fill:#FFFAEE;}
	.avocado_zeven{fill:#788287;}
	.avocado_negen{fill:#6F9B45;}
	.st0{fill:#EAD13F;}
	.st1{fill:#CC4121;}
	.st2{fill:#E0A838;}
	.st3{fill:#D1712A;}
	.st4{fill:#A3AEB5;}
	.st5{fill:#C3CC6A;}
	.st6{fill:#248EBC;}
	.st7{fill:#8D3E93;}
	.st8{fill:#3D3935;}
	.st9{fill:#D36781;}
	.st10{fill:#E598A3;}
	.st11{fill:#716558;}
	.st12{fill:#AF9480;}
	.st13{fill:#DBD2C1;}
	.st14{fill:#231F20;}
</style>
<g>
	<rect x="1.5" y="8.5" class="avocado_zeven" width="29" height="13"/>
	<path class="avocado_zes" d="M26.5,8.5h-21v-6h21V8.5z M26.5,17.5h-21v12h21V17.5z"/>
	<path class="avocado_negen" d="M7.5,12.5c0,0.552-0.448,1-1,1s-1-0.448-1-1s0.448-1,1-1S7.5,11.948,7.5,12.5z"/>
	<path class="avocado_een" d="M19,22h-6v-1h6V22z M19,23h-6v1h6V23z M19,25h-6v1h6V25z M31,8v14h-4v8H5v-8H1V8h4V2h22v6H31z
		 M6,8h20V3H6V8z M26,18H6v11h20V18z M30,9H2v12h3v-3H4v-1h24v1h-1v3h3V9z M5,12.5C5,11.672,5.672,11,6.5,11S8,11.672,8,12.5
		S7.328,14,6.5,14S5,13.328,5,12.5z M6,12.5C6,12.776,6.224,13,6.5,13S7,12.776,7,12.5S6.776,12,6.5,12S6,12.224,6,12.5z"/>
</g>
</svg>