<svg xmlns="http://www.w3.org/2000/svg" width="1em" height="1em" viewBox="0 0 32 32"><g fill="none"><g clip-path="url(#unjsUnstorage0)"><path fill="#616161" d="M31.043 6.988V28.86a2.183 2.183 0 0 1-2.183 2.183H3.14A2.183 2.183 0 0 1 .957 28.86V3.14c0-1.205.978-2.182 2.183-2.182h22.41c.89 0 1.735.397 2.302 1.085l2.51 3.047c.44.535.68 1.205.68 1.898"/><path fill="#fff" d="M25.985 31.043H6v-13.23a.82.82 0 0 1 .82-.82h18.348a.82.82 0 0 1 .82.82v13.23z"/><path fill="#e49c01" d="M6 27.98h19.985v3.063H6z"/><path fill="#424242" d="M4.188.958v11.937c0 .445.392.793.912.793h19.163c.52 0 .922-.346.922-.793V.958z"/><path fill="#e0e0e0" d="M8.75.958v11.255c0 .42.295.745.685.745H23.8c.39 0 .692-.325.692-.745V.957zM21.493 11.63c0 .18-.148.327-.328.327H16.82a.33.33 0 0 1-.328-.327V2.285c0-.18.148-.327.328-.327h4.345c.18 0 .328.147.328.327z"/></g><defs><clipPath id="unjsUnstorage0"><path fill="#fff" d="M0 0h32v32H0z"/></clipPath></defs></g></svg>
