<?xml version="1.0" encoding="iso-8859-1"?>
<!-- Uploaded to: SVG Repo, www.svgrepo.com, Generator: SVG Repo Mixer Tools -->
<svg fill="#000000" version="1.1" id="Layer_1" xmlns="http://www.w3.org/2000/svg" xmlns:xlink="http://www.w3.org/1999/xlink" 
	 viewBox="0 0 496 496" xml:space="preserve">
<g>
	<g>
		<g>
			<path d="M496,232V48H240v121.44C225.064,153.472,204.048,144,181.632,144h-8.472C189.504,130.792,200,110.608,200,88V60.76
				C200,27.256,172.744,0,139.24,0h-22.488C83.256,0,56,27.256,56,60.76V88c0,22.608,10.496,42.792,26.84,56H72
				c-39.704,0-72,32.296-72,72v80c0,26.472,21.528,48,48,48v152h160V235.896l20.512,32.824c4.424,7.064,12.032,11.28,20.352,11.28
				H288c17.648,0,32-14.352,32-32c0-5.856-1.696-11.272-4.448-16H344v88h-24h-8h-32h-8h-32v48h32v16h-32v48h32v16h-32v48h32h8h32h8
				h96h8h32h8h32v-48h-32v-16h32v-48h-32v-16h32v-48h-32h-8h-32h-8h-24v-88H496z M272,480h-16v-16h16V480z M272,416h-16v-16h16V416z
				 M272,352h-16v-16h16V352z M304,480h-16V336h16V480z M464,336h16v16h-16V336z M464,400h16v16h-16V400z M464,464h16v16h-16V464z
				 M432,336h16v144h-16V336z M116.76,16h22.488c23.072,0,42.112,17.552,44.496,40h-9.112c-2.104,0-4.168-0.848-5.656-2.344
				L152,36.688l-16.968,16.968C133.536,55.152,131.48,56,129.376,56H72.264C74.648,33.552,93.688,16,116.76,16z M72,88V72h57.376
				c6.408,0,12.44-2.504,16.968-7.032L152,59.312l5.656,5.656c4.528,4.536,10.56,7.032,16.968,7.032H184v16
				c0,30.872-25.128,56-56,56S72,118.872,72,88z M128,204.8l32-39.992V312H96V164.808L128,204.8z M112.648,160h30.704L128,179.192
				L112.648,160z M48,328c-11.792,0-22-6.48-27.552-16H48V328z M48,296H16v-80c0-30.872,25.128-56,56-56h8v152H64V200H48V296z
				 M120,480H64v-16h56V480z M192,480h-56v-16h56V480z M192,448h-56v-88h-16v88H64V328h128V448z M272,264h-23.136
				c-2.768,0-5.312-1.408-6.784-3.768L208,205.704V200h-16v112h-16V160h5.632c23.224,0,44.664,12.616,55.952,32.912L259.288,232H272
				V264z M288,264v-32c8.816,0,16,7.176,16,16C304,256.824,296.816,264,288,264z M416,480h-96v-16h96V480z M416,448h-96v-16h96V448z
				 M416,416h-96v-16h96V416z M416,384h-96v-16h96V384z M416,336v16h-96v-16H416z M360,320v-88h16v88H360z M288,216h-8h-11.288
				l-13.328-24H256V64h224v152H288z"/>
			<path d="M312,96h-16v25.136c-13.768,3.576-24,15.992-24,30.864c0,17.648,14.352,32,32,32s32-14.352,32-32
				c0-13.2-8.032-24.544-19.456-29.432C320.752,121.24,326.984,120,336,120v-16c-10.472,0-18.232,1.416-24,3.192V96z M320,152
				c0,8.824-7.184,16-16,16c-8.824,0-16-7.176-16-16c0-8.824,7.176-16,16-16C312.816,136,320,143.176,320,152z"/>
			<rect x="352" y="152" width="32" height="16"/>
			<rect x="352" y="120" width="32" height="16"/>
			<path d="M428,128h-12v-16h32V96h-48v48h28c6.616,0,12,5.384,12,12c0,6.616-5.384,12-12,12h-28v16h28c15.44,0,28-12.56,28-28
				S443.44,128,428,128z"/>
		</g>
	</g>
</g>
</svg>