<?xml version="1.0" encoding="iso-8859-1"?>
<!-- Uploaded to: SVG Repo, www.svgrepo.com, Generator: SVG Repo Mixer Tools -->
<svg version="1.1" id="Layer_1" xmlns="http://www.w3.org/2000/svg" xmlns:xlink="http://www.w3.org/1999/xlink" 
	 viewBox="0 0 512 512" xml:space="preserve">
<g>
	<circle style="fill:#FF8C29;" cx="118.195" cy="366.244" r="40.282"/>
	<path style="fill:#FF8C29;" d="M167.559,475.887c0-28.434-23.051-51.484-51.484-51.484S64.59,447.453,64.59,475.887v28.163h102.366
		L167.559,475.887z"/>
</g>
<g>
	<circle style="fill:#CDD4D5;" cx="257.516" cy="366.244" r="40.282"/>
	<path style="fill:#CDD4D5;" d="M306.882,475.887c0-28.434-23.051-51.484-51.484-51.484c-28.434,0-51.484,23.051-51.484,51.484
		v28.163H306.28L306.882,475.887z"/>
</g>
<g>
	<path style="fill:#FD6A33;" d="M77.913,366.244c0,21.536,16.9,39.123,38.161,40.225v-80.451
		C94.813,327.121,77.913,344.708,77.913,366.244z"/>
	<path style="fill:#FD6A33;" d="M64.59,475.887v28.163h51.484v-79.647C87.641,424.402,64.59,447.453,64.59,475.887z"/>
</g>
<g>
	<circle style="fill:#4ACFD9;" cx="393.805" cy="366.244" r="40.282"/>
	<path style="fill:#4ACFD9;" d="M344.441,475.887c0-28.434,23.051-51.484,51.484-51.484s51.484,23.051,51.484,51.484v28.163H345.043
		L344.441,475.887z"/>
</g>
<g>
	<path style="fill:#0295AA;" d="M393.805,325.963c-22.247,0-40.282,18.034-40.282,40.282c0,22.247,18.034,40.282,40.282,40.282
		c0.711,0,1.418-0.02,2.12-0.056v-80.451C395.224,325.983,394.517,325.963,393.805,325.963z"/>
	<path style="fill:#0295AA;" d="M344.441,475.887l0.602,28.163h50.882v-79.647C367.492,424.402,344.441,447.453,344.441,475.887z"/>
</g>
<g>
	<path style="fill:#9BAAAB;" d="M217.236,366.244c0,21.738,17.221,39.444,38.764,40.243v-80.487
		C234.458,326.8,217.236,344.506,217.236,366.244z"/>
	<path style="fill:#9BAAAB;" d="M255.398,424.402c-28.434,0-51.484,23.051-51.484,51.484v28.163H256v-79.632
		C255.799,424.415,255.6,424.402,255.398,424.402z"/>
</g>
<circle style="fill:#FF8C29;" cx="256" cy="92.754" r="84.803"/>
<g>
	<path style="fill:#FFFFFF;" d="M308.315,92.224c-3.833,0-7.209-2.778-7.84-6.685c-0.393-2.436-0.994-4.858-1.787-7.199
		c-1.408-4.159,0.823-8.672,4.982-10.08c4.155-1.408,8.671,0.822,10.08,4.982c1.074,3.173,1.889,6.458,2.422,9.762
		c0.7,4.336-2.247,8.416-6.582,9.116C309.161,92.191,308.735,92.224,308.315,92.224z"/>
	<path style="fill:#FFFFFF;" d="M296.7,66.782c-2.276,0-4.534-0.971-6.107-2.854c-8.611-10.312-21.22-16.226-34.593-16.226
		c-4.392,0-7.95-3.559-7.95-7.95s3.559-7.95,7.95-7.95c18.1,0,35.158,7.995,46.798,21.933c2.814,3.371,2.364,8.384-1.006,11.199
		C300.304,66.176,298.497,66.782,296.7,66.782z"/>
</g>
<rect x="222.079" y="177.557" style="fill:#E6EAEA;" width="67.843" height="59.362"/>
<path style="fill:#F0353D;" d="M294.161,93.284h-9.01v-4.77c0-4.392-3.559-7.95-7.95-7.95s-7.95,3.559-7.95,7.95v4.77h-26.501v-4.77
	c0-4.392-3.559-7.95-7.95-7.95s-7.95,3.559-7.95,7.95v4.77h-9.01c-4.392,0-7.95,3.559-7.95,7.95s3.559,7.95,7.95,7.95h9.01v59.892
	c0,4.392,3.559,7.95,7.95,7.95s7.95-3.559,7.95-7.95v-59.892h26.501v59.892c0,4.392,3.559,7.95,7.95,7.95s7.95-3.559,7.95-7.95
	v-59.892h9.01c4.392,0,7.95-3.559,7.95-7.95S298.553,93.284,294.161,93.284z"/>
<g>
	<path style="fill:#4ACFD9;" d="M128.036,75.338h-32.98c-4.392,0-7.95-3.559-7.95-7.95s3.559-7.95,7.95-7.95h32.98
		c4.392,0,7.95,3.559,7.95,7.95S132.428,75.338,128.036,75.338z"/>
	<path style="fill:#4ACFD9;" d="M116.257,123.31c-2.034,0-4.069-0.776-5.622-2.328c-3.105-3.106-3.105-8.139,0-11.244l20.988-20.988
		c3.106-3.104,8.139-3.104,11.244,0c3.105,3.106,3.105,8.139,0,11.244l-20.988,20.988
		C120.326,122.534,118.291,123.31,116.257,123.31z"/>
	<path style="fill:#4ACFD9;" d="M137.032,48.354c-2.034,0-4.07-0.776-5.622-2.328l-20.988-20.988c-3.105-3.106-3.105-8.139,0-11.244
		c3.106-3.104,8.139-3.104,11.244,0l20.988,20.988c3.105,3.106,3.105,8.139,0,11.244C141.1,47.578,139.066,48.354,137.032,48.354z"
		/>
	<path style="fill:#4ACFD9;" d="M425.424,75.338h-32.98c-4.392,0-7.95-3.559-7.95-7.95s3.559-7.95,7.95-7.95h32.98
		c4.392,0,7.95,3.559,7.95,7.95S429.816,75.338,425.424,75.338z"/>
	<path style="fill:#4ACFD9;" d="M404.223,123.31c-2.034,0-4.069-0.776-5.622-2.328l-20.988-20.988
		c-3.105-3.106-3.105-8.139,0-11.244c3.106-3.104,8.139-3.104,11.244,0l20.988,20.988c3.105,3.106,3.105,8.139,0,11.244
		C408.293,122.534,406.258,123.31,404.223,123.31z"/>
	<path style="fill:#4ACFD9;" d="M383.449,48.354c-2.034,0-4.069-0.776-5.622-2.328c-3.105-3.106-3.105-8.139,0-11.244l20.988-20.988
		c3.106-3.104,8.139-3.104,11.244,0c3.105,3.106,3.105,8.139,0,11.244L389.07,46.026C387.518,47.578,385.483,48.354,383.449,48.354z
		"/>
</g>
<path d="M118.195,414.476c26.595,0,48.232-21.637,48.232-48.232s-21.637-48.232-48.232-48.232s-48.232,21.637-48.232,48.232
	S91.599,414.476,118.195,414.476z M118.195,333.913c17.827,0,32.331,14.505,32.331,32.331c0,17.827-14.505,32.331-32.331,32.331
	s-32.331-14.505-32.331-32.331C85.863,348.418,100.368,333.913,118.195,333.913z"/>
<path d="M116.075,416.452c-32.772,0-59.434,26.661-59.434,59.433v28.164c0,4.392,3.56,7.95,7.95,7.95h102.366
	c4.325,0,7.856-3.457,7.948-7.781l0.602-28.163c0.001-0.056,0.002-0.112,0.002-0.17
	C175.509,443.114,148.847,416.452,116.075,416.452z M159.175,496.099H72.541v-20.213c0-24.005,19.529-43.533,43.534-43.533
	c23.977,0,43.488,19.485,43.534,43.45L159.175,496.099z"/>
<path d="M345.574,366.244c0,26.595,21.637,48.232,48.232,48.232s48.232-21.637,48.232-48.232s-21.637-48.232-48.232-48.232
	S345.574,339.649,345.574,366.244z M426.137,366.244c0,17.827-14.505,32.331-32.331,32.331c-17.827,0-32.331-14.505-32.331-32.331
	c0-17.827,14.505-32.331,32.331-32.331C411.632,333.913,426.137,348.418,426.137,366.244z"/>
<path d="M395.925,416.452c-32.772,0-59.434,26.661-59.434,59.433c0,0.057,0.001,0.113,0.002,0.17l0.602,28.163
	c0.092,4.324,3.623,7.781,7.948,7.781H447.41c4.392,0,7.95-3.559,7.95-7.95v-28.163C455.36,443.114,428.698,416.452,395.925,416.452
	z M439.459,496.099h-86.635l-0.434-20.294c0.042-23.969,19.556-43.452,43.534-43.452c24.006,0,43.534,19.529,43.534,43.533v20.214
	H439.459z"/>
<path d="M209.286,366.244c0,26.595,21.636,48.232,48.232,48.232c26.595,0,48.232-21.637,48.232-48.232s-21.637-48.232-48.232-48.232
	C230.923,318.012,209.286,339.649,209.286,366.244z M289.849,366.244c0,17.827-14.505,32.331-32.331,32.331
	c-17.827,0-32.331-14.505-32.331-32.331c0-17.827,14.505-32.331,32.331-32.331C275.345,333.913,289.849,348.418,289.849,366.244z"/>
<path d="M255.398,416.452c-32.772,0-59.433,26.661-59.433,59.433v28.164c0,4.392,3.559,7.95,7.95,7.95H306.28
	c4.325,0,7.856-3.457,7.948-7.781l0.602-28.163c0.001-0.056,0.002-0.112,0.002-0.17C314.832,443.114,288.17,416.452,255.398,416.452
	z M298.498,496.099h-86.633v-20.213c0-24.005,19.529-43.533,43.533-43.533c23.977,0,43.488,19.485,43.534,43.45L298.498,496.099z"/>
<path d="M116.075,304.232c4.392,0,7.95-3.559,7.95-7.95v-13.251H248.05v13.251c0,4.392,3.559,7.95,7.95,7.95s7.95-3.559,7.95-7.95
	v-13.251h115.545v13.251c0,4.392,3.559,7.95,7.95,7.95c4.392,0,7.95-3.559,7.95-7.95v-21.201c0-4.392-3.559-7.95-7.95-7.95H263.95
	V244.87h25.971c4.392,0,7.95-3.559,7.95-7.95v-29.681v-29.681c0-0.667-0.091-1.311-0.246-1.931
	c30.297-15.279,51.128-46.686,51.128-82.872C348.754,41.609,307.145,0,256,0s-92.754,41.609-92.754,92.754
	c0,36.186,20.831,67.592,51.128,82.872c-0.155,0.619-0.246,1.264-0.246,1.931v29.681v29.681c0,4.392,3.559,7.95,7.95,7.95h25.971
	v22.261H116.075c-4.392,0-7.95,3.559-7.95,7.95v21.201C108.124,300.673,111.683,304.232,116.075,304.232z M179.147,92.754
	c0-42.377,34.476-76.853,76.853-76.853s76.853,34.476,76.853,76.853S298.377,169.607,256,169.607S179.147,135.131,179.147,92.754z
	 M281.971,185.507v13.781h-51.942v-13.781H256H281.971z M230.029,215.188h51.942v13.781H256h-25.971V215.188z"/>
</svg>