<?xml version="1.0" encoding="iso-8859-1"?>
<!-- Uploaded to: SVG Repo, www.svgrepo.com, Generator: SVG Repo Mixer Tools -->
<svg height="800px" width="800px" version="1.1" id="Layer_1" xmlns="http://www.w3.org/2000/svg" xmlns:xlink="http://www.w3.org/1999/xlink" 
	 viewBox="0 0 512.001 512.001" xml:space="preserve">
<path style="fill:#FF5050;" d="M343.298,8.591H168.702c-9.721,0-19.044,3.861-25.917,10.736L19.327,142.784
	c-6.874,6.874-10.736,16.196-10.736,25.917v174.597c0,9.721,3.861,19.044,10.736,25.917l123.458,123.458
	c6.874,6.874,16.196,10.736,25.917,10.736h174.597c9.721,0,19.044-3.861,25.917-10.736l123.458-123.458
	c6.874-6.874,10.736-16.197,10.736-25.917V168.702c0-9.721-3.861-19.044-10.736-25.917L369.216,19.327
	C362.343,12.452,353.019,8.591,343.298,8.591z"/>
<path style="fill:#C84146;" d="M100.224,375.123c0-166.071,102.793-308.043,248.181-366.027c-1.691-0.239-3.379-0.505-5.106-0.505
	H168.702c-9.721,0-19.044,3.861-25.917,10.736L19.327,142.784c-6.874,6.874-10.736,16.196-10.736,25.917v174.597
	c0,9.721,3.862,19.044,10.736,25.917l89.979,89.979C103.413,432.095,100.224,403.987,100.224,375.123z"/>
<path d="M498.749,136.71L375.29,13.251C366.745,4.707,355.383,0,343.298,0H168.702c-12.085,0-23.447,4.707-31.993,13.251
	L13.251,136.71C4.707,145.255,0,156.617,0,168.702v174.597c0,12.085,4.707,23.447,13.251,31.993L136.71,498.75
	c8.545,8.545,19.907,13.251,31.993,13.251h174.597c12.085,0,23.447-4.707,31.993-13.251L498.75,375.291
	c8.545-8.545,13.251-19.907,13.251-31.993V168.702C512,156.617,507.293,145.255,498.749,136.71z M494.819,343.298
	c0,7.496-2.919,14.543-8.219,19.843L363.142,486.599c-5.3,5.3-12.348,8.219-19.843,8.219H168.702
	c-7.496,0-14.543-2.919-19.843-8.219L25.401,363.142c-5.301-5.301-8.219-12.348-8.219-19.844V168.702
	c0-7.496,2.919-14.543,8.219-19.843L148.858,25.401c5.301-5.301,12.348-8.219,19.844-8.219h174.597
	c7.496,0,14.543,2.919,19.843,8.219l123.457,123.457c5.3,5.3,8.219,12.348,8.219,19.843V343.298z"/>
<path d="M246.837,192.43H173.53c-4.744,0-8.591,3.846-8.591,8.591c0,4.744,3.846,8.591,8.591,8.591h73.306
	c4.744,0,8.591-3.846,8.591-8.591C255.427,196.276,251.581,192.43,246.837,192.43z"/>
<path d="M210.183,229.083c-4.744,0-8.591,3.846-8.591,8.591v73.306c0,4.744,3.846,8.591,8.591,8.591
	c4.744,0,8.591-3.846,8.591-8.591v-73.306C218.774,232.929,214.928,229.083,210.183,229.083z"/>
<path d="M310.98,192.43c-24.947,0-45.244,20.297-45.244,45.244v36.653c0,24.947,20.297,45.244,45.244,45.244
	s45.244-20.297,45.244-45.244v-36.653C356.224,212.726,335.927,192.43,310.98,192.43z M339.043,274.327
	c0,15.473-12.589,28.063-28.063,28.063c-15.473,0-28.063-12.589-28.063-28.063v-36.653c0-15.473,12.589-28.063,28.063-28.063
	c15.473,0,28.063,12.589,28.063,28.063V274.327z"/>
<path d="M416.358,192.43h-32.072c-4.744,0-8.591,3.846-8.591,8.591c0,4.744,3.846,8.591,8.591,8.591h32.072
	c12.948,0,23.481,10.533,23.481,23.481c0,12.948-10.533,23.481-23.481,23.481h-23.481v-18.899c0-4.744-3.846-8.591-8.591-8.591
	c-4.744,0-8.591,3.846-8.591,8.591v73.306c0,4.744,3.846,8.591,8.591,8.591c4.744,0,8.591-3.846,8.591-8.591v-37.226h23.481
	c22.422,0,40.662-18.241,40.662-40.662S438.779,192.43,416.358,192.43z"/>
<path d="M113.969,192.43c-3.79,0-7.541,0.413-11.152,1.229c-4.629,1.046-7.532,5.645-6.488,10.272
	c1.046,4.629,5.645,7.533,10.272,6.488c2.371-0.536,4.85-0.808,7.367-0.808c12.728,0,23.481,7.081,23.481,15.463
	c0,4.744,3.846,8.591,8.591,8.591s8.591-3.846,8.591-8.591C154.631,207.074,136.39,192.43,113.969,192.43z"/>
<path d="M116.857,247.91c-20.455-7.305-26.37-12.428-26.37-22.836c0-4.744-3.846-8.591-8.591-8.591
	c-4.744,0-8.591,3.846-8.591,8.591c0,23.554,18.66,32.191,37.773,39.016c20.455,7.305,26.37,12.428,26.37,22.836
	c0,8.382-10.753,15.463-23.481,15.463s-23.481-7.081-23.481-15.463c0-4.744-3.846-8.591-8.591-8.591
	c-4.744,0-8.591,3.846-8.591,8.591c0,18,18.241,32.644,40.662,32.644s40.662-14.644,40.662-32.644
	C154.631,263.372,135.971,254.735,116.857,247.91z"/>
</svg>