<?xml version="1.0" encoding="iso-8859-1"?>
<!-- Uploaded to: SVG Repo, www.svgrepo.com, Generator: SVG Repo Mixer Tools -->
<svg version="1.1" id="Layer_1" xmlns="http://www.w3.org/2000/svg" xmlns:xlink="http://www.w3.org/1999/xlink" 
	 viewBox="0 0 505 505" xml:space="preserve">
<circle style="fill:#54C0EB;" cx="252.5" cy="252.5" r="252.5"/>
<path style="fill:#84DBFF;" d="M60.4,416.2c46.3,54.3,115.1,88.8,192.1,88.8c76.9,0,145.8-34.5,192.1-88.8H60.4z"/>
<path style="fill:#FFD05B;" d="M400.4,344H104.6V105.4c0-1.9,1.5-3.4,3.4-3.4h289c1.9,0,3.4,1.5,3.4,3.4V344z"/>
<g>
	<path style="fill:#2B3B4E;" d="M366.8,284.1c-0.2,0-0.3-0.1-0.3-0.3c0-0.2,0.1-0.3,0.3-0.4l32.1-3.6v-22.5c0-0.2,0.1-0.3,0.3-0.3
		s0.3,0.1,0.3,0.3v22.8c0,0.2-0.1,0.3-0.3,0.3L366.8,284.1C366.9,284.1,366.9,284.1,366.8,284.1z"/>
	<path style="fill:#2B3B4E;" d="M366.8,290.4c-3.4,0-6.2-2.5-6.6-5.9c-0.4-3.6,2.2-6.9,5.8-7.3l26.5-3v-16.7c0-3.5,2.6-6.5,6-6.8
		c3.9-0.4,7.3,2.7,7.3,6.6v22.8c0,0.9-0.2,1.7-0.5,2.5c-0.1,0.3-0.2,0.6-0.2,0.9l0,0c0,1.1-0.8,2.1-2,2.2l-0.5,0.1
		c-0.8,0.5-1.8,0.9-2.8,1l-32.7,3.7L366.8,290.4z"/>
</g>
<path style="fill:#324A5E;" d="M412.5,267.8H385c-0.6,0-1-0.5-1-1V213c0-0.6,0.5-1,1-1h27.5c0.6,0,1,0.5,1,1v53.8
	C413.5,267.4,413,267.8,412.5,267.8z"/>
<g>
	<path style="fill:#2B3B4E;" d="M138.2,284.1C138.1,284.1,138.1,284.1,138.2,284.1l-32.4-3.7c-0.2,0-0.3-0.2-0.3-0.3v-22.8
		c0-0.2,0.1-0.3,0.3-0.3s0.3,0.1,0.3,0.3v22.5l32.1,3.6c0.2,0,0.3,0.2,0.3,0.4S138.3,284.1,138.2,284.1z"/>
	<path style="fill:#2B3B4E;" d="M138.2,290.4h-0.4h-0.4l-32.3-3.7c-1-0.1-2-0.5-2.8-1l-0.5-0.1c-1.1-0.1-2-1.1-2-2.2l0,0
		c0-0.3-0.1-0.6-0.2-0.9c-0.3-0.8-0.5-1.6-0.5-2.5v-22.5c0-3.5,2.6-6.5,6-6.8c3.9-0.4,7.3,2.7,7.3,6.6v16.9l26.5,3
		c1.8,0.2,3.3,1.1,4.4,2.5c1.1,1.4,1.6,3.1,1.4,4.9C144.4,287.9,141.5,290.4,138.2,290.4z"/>
</g>
<path style="fill:#324A5E;" d="M92.5,267.8H120c0.6,0,1-0.5,1-1V213c0-0.6-0.5-1-1-1H92.5c-0.6,0-1,0.5-1,1v53.8
	C91.5,267.4,92,267.8,92.5,267.8z"/>
<path style="fill:#E6E9EE;" d="M376.3,344.8c-0.4-54.9-4.5-106.9-11.4-153.8c-0.6-4.3-4.4-7.5-8.8-7.5H148.9c-4.4,0-8.1,3.2-8.8,7.5
	c-7,46.9-11,99-11.4,153.8H376.3z"/>
<path style="fill:#324A5E;" d="M363.6,266.8c-1.9-24.7-4.5-48.8-8-72.1H149.4c-3.4,23.2-6.1,47.3-8,72.1H363.6z"/>
<path style="fill:#CED5E0;" d="M334.8,274.6H170.2c-2.6,0-4.8,2.1-4.8,4.8v66.4h174.2v-66.4C339.6,276.7,337.4,274.6,334.8,274.6z"
	/>
<g>
	<path style="fill:#ACB3BA;" d="M388.9,349.9v-33.1c0-16.4-13.3-29.6-29.6-29.6c-16.4,0-29.6,13.3-29.6,29.6v33.1H388.9z"/>
	<path style="fill:#ACB3BA;" d="M175.4,349.9v-33.1c0-16.4-13.3-29.6-29.6-29.6c-16.4,0-29.6,13.3-29.6,29.6v33.1H175.4z"/>
</g>
<g>
	<path style="fill:#2B3B4E;" d="M388.6,377h-53.7v37.7c0,0.9,0.7,1.6,1.6,1.6h50.6c0.9,0,1.6-0.7,1.6-1.6V377H388.6z"/>
	<path style="fill:#2B3B4E;" d="M170.1,377h-53.7v37.7c0,0.9,0.7,1.6,1.6,1.6h50.5c0.9,0,1.6-0.7,1.6-1.6V377z"/>
</g>
<g>
	<path style="fill:#FFFFFF;" d="M408.3,383.1H96.7c-0.5,0-1-0.4-1-1v-36c0-0.5,0.4-1,1-1h311.5c0.5,0,1,0.4,1,1v36
		C409.3,382.7,408.8,383.1,408.3,383.1z"/>
	<circle style="fill:#FFFFFF;" cx="359.2" cy="317.9" r="17.6"/>
	<circle style="fill:#FFFFFF;" cx="145.8" cy="317.9" r="17.6"/>
</g>
<g>
	<rect x="198.7" y="290.4" style="fill:#ACB3BA;" width="12.9" height="45.7"/>
	<rect x="230.3" y="290.4" style="fill:#ACB3BA;" width="12.9" height="45.7"/>
	<rect x="261.8" y="290.4" style="fill:#ACB3BA;" width="12.9" height="45.7"/>
	<rect x="293.4" y="290.4" style="fill:#ACB3BA;" width="12.9" height="45.7"/>
</g>
</svg>