<?xml version="1.0" encoding="utf-8"?>
<!-- Uploaded to: SVG Repo, www.svgrepo.com, Generator: SVG Repo Mixer Tools -->
<svg fill="#000000" version="1.1" id="Layer_1" xmlns="http://www.w3.org/2000/svg" xmlns:xlink="http://www.w3.org/1999/xlink" 
	 width="800px" height="800px" viewBox="0 0 256 252" enable-background="new 0 0 256 252" xml:space="preserve">
<path d="M46.165,111.893c-5.653,0-10.307,4.433-10.751,9.975l-1.33,20.504l-13.632,8.202v34.691h6.096v11.305
	c0,4.988,3.879,8.867,8.756,8.867s8.867-3.99,8.867-8.867v-11.305h58.742v11.305c0,4.988,3.99,8.867,8.867,8.867
	c4.877,0,8.867-3.99,8.867-8.867v-11.305h6.096v-34.691l-13.632-8.202l-1.33-20.504c-0.443-5.542-5.098-9.975-10.751-9.975H46.165z
	 M35.192,169.969c-4.101,0-7.426-3.325-7.426-7.426c0-4.101,3.325-7.426,7.426-7.426c3.99,0,7.315,3.325,7.315,7.426
	S39.293,169.969,35.192,169.969 M97.924,173.627H49.268v-18.62c0-1.773,1.552-3.325,3.325-3.325h42.006
	c1.773,0,3.325,1.441,3.325,3.325v18.731V173.627z M119.536,162.543c0,4.101-3.325,7.426-7.426,7.426s-7.426-3.325-7.426-7.426
	s3.325-7.426,7.426-7.426S119.536,158.443,119.536,162.543 M39.293,142.15l1.33-19.95c0.332-2.882,2.66-5.098,5.652-5.098h54.863
	c2.882,0,5.32,2.217,5.542,5.098l1.33,19.95H39.293z M30.205,72.436c-5.32,0-9.753,4.322-9.753,9.864v62.843l8.978-5.542
	l1.219-18.398c0.776-7.869,7.426-14.076,15.627-14.076h54.752c8.091,0,14.852,6.207,15.627,14.076l1.219,18.288l8.977,5.542V82.189
	c0-5.431-4.323-9.753-9.753-9.753H30.205z M198.608,91.221c-1.756-1.828-1.698-4.734,0.13-6.491s4.734-1.698,6.491,0.13
	s1.698,4.734-0.13,6.491S200.364,93.049,198.608,91.221z M229.263,82.637c1.828-1.756,1.887-4.662,0.13-6.491
	s-4.662-1.887-6.491-0.13c-1.828,1.756-1.887,4.662-0.13,6.491S227.434,84.394,229.263,82.637z M171.883,56.775
	c1.828-1.756,1.887-4.662,0.13-6.491c-1.756-1.828-4.662-1.887-6.491-0.13s-1.887,4.662-0.13,6.491S170.055,58.532,171.883,56.775z
	 M239.094,60.108c1.828-1.756,1.887-4.662,0.13-6.491s-4.662-1.887-6.491-0.13s-1.887,4.662-0.13,6.491
	C234.36,61.806,237.266,61.864,239.094,60.108z M204.274,24.598c1.828-1.756,1.887-4.662,0.13-6.491
	c-1.756-1.828-4.662-1.887-6.491-0.13s-1.887,4.662-0.13,6.491C199.54,26.296,202.445,26.354,204.274,24.598z M229.857,35.032
	c1.828-1.756,1.887-4.662,0.13-6.491c-1.756-1.828-4.662-1.887-6.491-0.13s-1.887,4.662-0.13,6.491
	C225.123,36.73,228.029,36.788,229.857,35.032z M182.436,34.261c1.828-1.756,1.887-4.662,0.13-6.491
	c-1.756-1.828-4.662-1.887-6.491-0.13s-1.887,4.662-0.13,6.491S180.607,36.017,182.436,34.261z M190.179,61.832l-16.368,15.724
	l-1.58,6.822l6.88-1.305l16.368-15.724c4.637,2.618,10.782,2.02,15.012-2.044c5.15-4.947,5.309-12.88,0.362-18.03
	s-12.88-5.309-18.03-0.362C188.593,50.978,187.573,56.91,190.179,61.832z M253.968,54.72c0,21.672-13.201,40.348-31.968,48.417V119
	h-15.232v88.777c0,17.087-13.772,30.858-30.859,30.858h-26.12v11.181H2V215h148v13.484l26.675-0.05
	c11.476,0,20.657-9.181,20.657-20.657V119H182v-15.814c-18.828-8.041-32.083-26.75-32.083-48.466
	c0-29.073,23.463-52.536,52.536-52.536C231.271,2.184,254.989,25.646,253.968,54.72z M241.747,34.102
	c-11.375-21.68-38.232-30.052-59.912-18.677c-21.68,11.375-30.052,38.232-18.677,59.912c11.375,21.68,38.232,30.052,59.912,18.677
	C244.75,82.639,253.122,55.782,241.747,34.102z"/>
</svg>