<?xml version="1.0" encoding="iso-8859-1"?>
<!-- Uploaded to: SVG Repo, www.svgrepo.com, Generator: SVG Repo Mixer Tools -->
<svg version="1.1" id="Layer_1" xmlns="http://www.w3.org/2000/svg" xmlns:xlink="http://www.w3.org/1999/xlink" 
	 viewBox="0 0 512.001 512.001" xml:space="preserve">
<path style="fill:#FFC1A6;" d="M257.863,8.18v339.647c92.483-0.882,173.405-68.01,221.862-169.823
	C431.268,76.179,350.346,9.062,257.863,8.18z"/>
<path style="fill:#FFDBCC;" d="M257.863,8.18c78.864,1.045,147.865,68.119,189.202,169.823
	c-41.337,101.694-110.338,168.778-189.202,169.823c-0.621,0.011-1.241,0.011-1.862,0.011c-93.256,0-174.94-67.335-223.724-169.834
	C81.061,75.493,162.745,8.169,256.001,8.169C256.622,8.169,257.242,8.169,257.863,8.18z"/>
<path style="fill:#FFFFFF;" d="M256.001,60.114c-93.257,0-174.937,46.734-223.724,117.886
	c48.787,71.151,130.466,117.886,223.724,117.886c93.256,0,174.937-46.736,223.724-117.886
	C430.938,106.85,349.257,60.114,256.001,60.114z"/>
<path style="fill:#42C8C6;" d="M256.001,59.882v236.244c65.234,0,118.122-52.888,118.122-118.122
	C374.123,112.759,321.235,59.882,256.001,59.882z"/>
<path style="fill:#81E3E2;" d="M256.001,59.882c47.194,0,85.461,52.877,85.461,118.122c0,65.234-38.267,118.122-85.461,118.122
	c-65.234,0-118.122-52.888-118.122-118.122C137.879,112.759,190.767,59.882,256.001,59.882z"/>
<path style="fill:#272727;" d="M256.001,121.937v112.134c30.962,0,56.067-25.105,56.067-56.067
	C312.068,147.031,286.963,121.937,256.001,121.937z"/>
<g>
	<path style="fill:#4D4D4D;" d="M256.001,121.937c12.923,0,23.407,25.094,23.407,56.067c0,30.962-10.484,56.067-23.407,56.067
		c-30.962,0-56.067-25.105-56.067-56.067C199.934,147.031,225.039,121.937,256.001,121.937z"/>
	<polygon style="fill:#4D4D4D;" points="80.375,446.679 58.601,474.462 8.326,446.679 	"/>
</g>
<polygon style="fill:#737373;" points="58.601,418.896 80.375,438.743 58.601,458.589 8.326,446.679 "/>
<polygon style="fill:#FFC1A6;" points="133.524,458.589 111.751,503.835 58.601,474.462 58.601,458.589 "/>
<polygon style="fill:#FFDBCC;" points="111.751,471.174 58.601,458.589 58.601,418.896 111.751,389.523 133.524,430.349 "/>
<path style="fill:#FE5F1A;" d="M392.086,471.174l21.774,32.66h32.66c31.561,0,57.156-25.595,57.156-57.156L392.086,471.174z"/>
<path style="fill:#FE834D;" d="M446.52,389.523c31.572,0,57.156,25.584,57.156,57.156c0,13.532-25.595,24.495-57.156,24.495h-54.434
	l21.774-81.346v-0.305H446.52z"/>
<polygon style="fill:#FEDC3D;" points="402.973,449.401 381.199,503.835 111.751,503.835 111.751,471.174 "/>
<polygon style="fill:#FFE777;" points="402.973,424.906 381.199,471.174 111.751,471.174 111.751,446.679 "/>
<polygon style="fill:#FFF1B1;" points="381.199,389.828 402.973,446.679 111.751,446.679 111.751,389.523 381.199,389.523 "/>
<polygon style="fill:#B9B9B9;" points="381.199,471.174 381.199,503.835 413.86,503.835 413.86,471.174 397.53,449.401 "/>
<rect x="381.203" y="389.519" style="fill:#DCDCDC;" width="32.66" height="81.651"/>
<path d="M169.379,36.625c-3.032,0-5.944-1.696-7.354-4.608c-1.966-4.059-0.269-8.941,3.79-10.907C194.739,7.101,225.083,0,256.001,0
	s61.261,7.101,90.183,21.108c4.059,1.965,5.756,6.849,3.79,10.907s-6.849,5.755-10.908,3.79
	c-26.685-12.923-54.632-19.475-83.065-19.475s-56.383,6.553-83.07,19.476C171.785,36.362,170.572,36.624,169.379,36.625z"/>
<path d="M256.001,355.999c-30.919,0-61.262-7.101-90.186-21.11c-4.06-1.965-5.756-6.849-3.79-10.908
	c1.964-4.059,6.846-5.757,10.907-3.79c26.687,12.924,54.635,19.477,83.069,19.477s56.381-6.553,83.065-19.475
	c4.059-1.967,8.941-0.269,10.908,3.79c1.966,4.059,0.269,8.942-3.79,10.908C317.262,348.897,286.92,355.999,256.001,355.999z"/>
<path d="M486.908,173.382c-52.24-76.186-138.561-121.67-230.907-121.67c-92.347,0-178.668,45.484-230.907,121.67
	c-1.907,2.783-1.907,6.453,0,9.234c52.239,76.186,138.56,121.67,230.907,121.67c92.346,0,178.667-45.484,230.907-121.67
	C488.816,179.835,488.816,176.164,486.908,173.382z M256.001,287.956c-60.63,0-109.957-49.327-109.957-109.957
	S195.371,68.043,256.001,68.043s109.957,49.327,109.957,109.957S316.632,287.956,256.001,287.956z M41.801,177.999
	c33.426-46.587,80.624-80.407,133.963-97.451c-28.105,23.181-46.05,58.26-46.05,97.451c0,39.193,17.947,74.272,46.053,97.453
	C122.428,258.408,75.228,224.586,41.801,177.999z M336.242,275.447c28.102-23.181,46.047-58.259,46.047-97.448
	c0-39.191-17.946-74.27-46.05-97.451c53.338,17.044,100.537,50.864,133.963,97.451C436.776,224.585,389.578,258.403,336.242,275.447
	z"/>
<path d="M256.001,242.231c-35.418,0-64.232-28.814-64.232-64.232s28.814-64.232,64.232-64.232s64.232,28.814,64.232,64.232
	S291.419,242.231,256.001,242.231z M256.001,130.097c-26.414,0-47.902,21.488-47.902,47.902s21.488,47.902,47.902,47.902
	s47.902-21.488,47.902-47.902S282.415,130.097,256.001,130.097z"/>
<path d="M446.52,381.358H111.751c-1.382,0-2.74,0.351-3.949,1.019l-53.07,29.328c-0.017,0.009-0.034,0.019-0.05,0.027L4.378,439.533
	c-2.602,1.437-4.216,4.174-4.216,7.146s1.615,5.709,4.216,7.146l50.314,27.806c0.011,0.005,0.022,0.012,0.033,0.019l53.078,29.332
	c1.208,0.668,2.567,1.019,3.949,1.019H446.52c17.447,0,33.85-6.794,46.188-19.132c12.338-12.338,19.131-28.741,19.131-46.188
	C511.841,410.661,482.538,381.358,446.52,381.358z M103.586,489.994l-36.818-20.346v-45.935l36.818-20.346V489.994z
	 M119.916,454.844h46.269c4.509,0,8.165-3.656,8.165-8.165s-3.656-8.165-8.165-8.165h-46.269v-40.826h253.118v40.826H198.845
	c-4.509,0-8.165,3.656-8.165,8.165s3.656,8.165,8.165,8.165h174.189v40.826H119.916V454.844z M389.364,397.689h16.33v97.981h-16.33
	V397.689z M50.437,432.736v27.885l-25.23-13.943L50.437,432.736z M481.162,481.321c-9.254,9.254-21.556,14.35-34.641,14.35h-24.495
	V397.69h24.495c27.013,0,48.991,21.977,48.991,48.991C495.511,459.765,490.416,472.067,481.162,481.321z"/>
</svg>