<?xml version="1.0" encoding="iso-8859-1"?>
<!-- Uploaded to: SVG Repo, www.svgrepo.com, Generator: SVG Repo Mixer Tools -->
<svg height="800px" width="800px" version="1.1" id="Layer_1" xmlns="http://www.w3.org/2000/svg" xmlns:xlink="http://www.w3.org/1999/xlink" 
	 viewBox="0 0 512 512" xml:space="preserve">
<path style="fill:#464655;" d="M501.481,442.907L271.256,51.008c-6.854-11.667-23.658-11.667-30.512,0L10.518,442.907
	c-6.968,11.861,1.545,26.835,15.256,26.835h460.451C499.937,469.741,508.45,454.767,501.481,442.907z"/>
<path style="fill:#5B5D6E;" d="M308.393,114.226c-73.155,52.79-120.816,138.714-120.816,235.821
	c0,42.686,9.277,83.182,25.804,119.695h272.845c13.71,0,22.224-14.974,15.256-26.835L308.393,114.226z"/>
<path style="fill:#FFDC64;" d="M252.314,98.83L60.132,425.968c-2.489,4.236,0.566,9.575,5.48,9.575h380.774
	c4.914,0,7.969-5.338,5.48-9.575L259.686,98.83C258.033,96.017,253.966,96.017,252.314,98.83z"/>
<path style="fill:#FFF082;" d="M187.577,350.046c0,29.758,4.493,58.463,12.801,85.497h246.01c4.914,0,7.969-5.338,5.48-9.575
	L281.561,136.067C223.798,189.193,187.577,265.379,187.577,350.046z"/>
<g>
	<circle style="fill:#464655;" cx="256.031" cy="375.694" r="17.099"/>
	<polygon style="fill:#464655;" points="265.341,332.412 272.359,212.717 239.692,212.717 246.711,332.412 	"/>
</g>
<path d="M508.392,438.847L278.167,46.948c-4.673-7.955-12.96-12.706-22.167-12.706c-9.207,0-17.493,4.75-22.166,12.706
	L3.607,438.847c-4.758,8.099-4.811,17.8-0.146,25.953c4.644,8.114,12.985,12.958,22.312,12.958h460.452
	c9.328,0,17.669-4.844,22.313-12.958C513.205,456.646,513.15,446.944,508.392,438.847z M494.625,456.836
	c-0.842,1.469-3.345,4.89-8.4,4.89H25.774c-5.055,0-7.558-3.42-8.4-4.89c-1.774-3.1-1.754-6.791,0.056-9.87L247.655,55.068
	c2.542-4.327,6.683-4.795,8.344-4.795s5.802,0.467,8.344,4.795l230.227,391.897C496.38,450.046,496.4,453.735,494.625,456.836z"/>
<path d="M290.021,166.291c1.493,2.541,4.169,3.956,6.919,3.956c1.38,0,2.778-0.356,4.053-1.105
	c3.816-2.242,5.093-7.154,2.851-10.971l-6.719-11.437c-2.242-3.817-7.155-5.092-10.971-2.851c-3.816,2.242-5.093,7.154-2.851,10.971
	L290.021,166.291z"/>
<path d="M320.908,187.219c-2.243-3.817-7.155-5.093-10.971-2.851c-3.817,2.242-5.093,7.154-2.851,10.97l136.401,232.188H68.513
	l187.488-319.147l10.181,17.33c2.242,3.817,7.155,5.092,10.971,2.851c3.817-2.242,5.093-7.154,2.851-10.971l-17.092-29.095
	c-1.44-2.451-4.07-3.955-6.911-3.955c-2.842,0-5.472,1.505-6.911,3.955L47.596,431.482c-1.456,2.478-1.473,5.547-0.045,8.041
	c1.428,2.494,4.082,4.033,6.956,4.033h402.984c2.874,0,5.528-1.539,6.956-4.033c1.428-2.494,1.411-5.564-0.045-8.041
	L320.908,187.219z"/>
<path d="M256.026,350.58c-13.848,0-25.115,11.266-25.115,25.115s11.266,25.115,25.115,25.115c13.848,0,25.115-11.266,25.115-25.115
	S269.875,350.58,256.026,350.58z M256.026,384.779c-5.009,0-9.084-4.075-9.084-9.084c0-5.009,4.075-9.084,9.084-9.084
	s9.084,4.075,9.084,9.084C265.11,380.704,261.035,384.779,256.026,384.779z"/>
<path d="M273.126,205.236h-34.199c-2.225,0-4.35,0.924-5.866,2.553c-1.517,1.629-2.288,3.814-2.129,6.033l8.55,119.695
	c0.299,4.195,3.79,7.445,7.995,7.445h17.099c4.205,0,7.696-3.25,7.995-7.445l6.107-85.496c0.315-4.416-3.008-8.25-7.424-8.566
	c-4.404-0.312-8.25,3.008-8.566,7.424l-5.575,78.051h-2.173l-7.405-103.665h25.59c4.427,0,8.015-3.589,8.015-8.015
	S277.552,205.236,273.126,205.236z"/>
</svg>