<!DOCTYPE svg PUBLIC "-//W3C//DTD SVG 1.1//EN" "http://www.w3.org/Graphics/SVG/1.1/DTD/svg11.dtd">
<!-- Uploaded to: SVG Repo, www.svgrepo.com, Transformed by: SVG Repo Mixer Tools -->
<svg fill="#e01b24" height="800px" width="800px" version="1.1" id="Layer_1" xmlns="http://www.w3.org/2000/svg" xmlns:xlink="http://www.w3.org/1999/xlink" viewBox="0 0 512 512" xml:space="preserve">
<g id="SVGRepo_bgCarrier" stroke-width="0"/>
<g id="SVGRepo_tracerCarrier" stroke-linecap="round" stroke-linejoin="round"/>
<g id="SVGRepo_iconCarrier"> <g> <g> <path d="M437.333,213.333c5.888,0,10.667-4.779,10.667-10.667v-128c0-29.397-23.936-53.333-53.333-53.333H53.333 C23.936,21.333,0,45.269,0,74.667v362.667c0,29.397,23.936,53.333,53.333,53.333h341.333c29.397,0,53.333-23.936,53.333-53.333 v-64c0-5.888-4.779-10.667-10.667-10.667c-5.888,0-10.667,4.779-10.667,10.667v64c0,17.643-14.357,32-32,32H53.333 c-17.643,0-32-14.357-32-32V128h405.333v74.667C426.667,208.555,431.445,213.333,437.333,213.333z M21.333,106.667v-32 c0-17.643,14.357-32,32-32h341.333c17.643,0,32,14.357,32,32v32H21.333z"/> </g> </g> <g> <g> <circle cx="53.333" cy="74.667" r="10.667"/> </g> </g> <g> <g> <circle cx="96" cy="74.667" r="10.667"/> </g> </g> <g> <g> <circle cx="138.667" cy="74.667" r="10.667"/> </g> </g> <g> <g> <path d="M501.333,320h-32v-74.667c0-5.888-4.779-10.667-10.667-10.667S448,239.445,448,245.333v85.333 c0,5.888,4.779,10.667,10.667,10.667h42.667c5.888,0,10.667-4.779,10.667-10.667S507.221,320,501.333,320z"/> </g> </g> <g> <g> <path d="M419.371,235.221c-4.352-1.451-9.131,0.043-11.904,3.712L384,270.208l-23.467-31.275 c-2.752-3.691-7.531-5.163-11.904-3.712c-4.352,1.451-7.296,5.525-7.296,10.112v85.333c0,5.888,4.779,10.667,10.667,10.667 c5.888,0,10.667-4.779,10.667-10.667v-53.333l12.8,17.067c4.032,5.376,13.056,5.376,17.067,0l12.8-17.067v53.333 c0,5.888,4.779,10.667,10.667,10.667c5.888,0,10.667-4.779,10.667-10.667v-85.333 C426.667,240.747,423.723,236.672,419.371,235.221z"/> </g> </g> <g> <g> <path d="M290.667,288.021l27.221-36.288c3.541-4.715,2.581-11.392-2.133-14.933c-4.693-3.52-11.392-2.581-14.933,2.133 l-23.467,31.296l-23.488-31.296c-3.541-4.736-10.24-5.696-14.933-2.133c-4.715,3.541-5.675,10.219-2.133,14.933l27.221,36.288 l-27.2,36.245c-3.541,4.715-2.581,11.392,2.133,14.933c1.92,1.429,4.16,2.133,6.379,2.133c3.243,0,6.443-1.472,8.555-4.267 l23.467-31.275l23.445,31.275c2.091,2.795,5.291,4.267,8.533,4.267c2.24,0,4.48-0.704,6.4-2.133 c4.715-3.541,5.675-10.219,2.133-14.933L290.667,288.021z"/> </g> </g> </g>
</svg>