<?xml version="1.0" ?><!-- Uploaded to: SVG Repo, www.svgrepo.com, Generator: SVG Repo Mixer Tools -->
<svg width="800px" height="800px" viewBox="0 0 60 60" xmlns="http://www.w3.org/2000/svg"><rect fill="#ffffff" height="60" rx="10" width="60"/><path d="M8,22H52a0,0,0,0,1,0,0V48a4,4,0,0,1-4,4H12a4,4,0,0,1-4-4V22A0,0,0,0,1,8,22Z" fill="#f1f3f4"/><path d="M48,53.5H12A5.506,5.506,0,0,1,6.5,48V22A1.5,1.5,0,0,1,8,20.5H52A1.5,1.5,0,0,1,53.5,22V48A5.506,5.506,0,0,1,48,53.5ZM9.5,23.5V48A2.5,2.5,0,0,0,12,50.5H48A2.5,2.5,0,0,0,50.5,48V23.5Z" fill="#aaadbf"/><path d="M12,14H48a4,4,0,0,1,4,4v4a0,0,0,0,1,0,0H8a0,0,0,0,1,0,0V18A4,4,0,0,1,12,14Z" fill="#f2c4bb"/><path d="M52,23.5H8A1.5,1.5,0,0,1,6.5,22V18A5.506,5.506,0,0,1,12,12.5H48A5.506,5.506,0,0,1,53.5,18v4A1.5,1.5,0,0,1,52,23.5Zm-42.5-3h41V18A2.5,2.5,0,0,0,48,15.5H12A2.5,2.5,0,0,0,9.5,18Z" fill="#f28080"/><path d="M8,23.5A1.5,1.5,0,0,1,6.5,22V18A5.506,5.506,0,0,1,12,12.5H48a1.5,1.5,0,0,1,0,3H12A2.5,2.5,0,0,0,9.5,18v4A1.5,1.5,0,0,1,8,23.5Z" fill="#f2bf80"/><rect fill="#f1f3f4" height="10" rx="3" width="6" x="14" y="8"/><path d="M17,19.5A4.505,4.505,0,0,1,12.5,15V11a4.5,4.5,0,0,1,9,0v4A4.505,4.505,0,0,1,17,19.5Zm0-10A1.5,1.5,0,0,0,15.5,11v4a1.5,1.5,0,0,0,3,0V11A1.5,1.5,0,0,0,17,9.5Z" fill="#aaadbf"/><rect fill="#f1f3f4" height="10" rx="3" width="6" x="40" y="8"/><path d="M43,19.5A4.505,4.505,0,0,1,38.5,15V11a4.5,4.5,0,0,1,9,0v4A4.505,4.505,0,0,1,43,19.5Zm0-10A1.5,1.5,0,0,0,41.5,11v4a1.5,1.5,0,0,0,3,0V11A1.5,1.5,0,0,0,43,9.5Z" fill="#aaadbf"/><path d="M24,37.5H18a1.5,1.5,0,0,1,0-3h6a2.5,2.5,0,0,0,0-5H18a1.5,1.5,0,0,1,0-3h6a5.5,5.5,0,0,1,0,11Z" fill="#f28080"/><path d="M24,47.5H18a1.5,1.5,0,0,1,0-3h6A2.5,2.5,0,0,0,26.5,42V40A2.5,2.5,0,0,0,24,37.5H18a1.5,1.5,0,0,1,0-3h6A5.506,5.506,0,0,1,29.5,40v2A5.506,5.506,0,0,1,24,47.5Z" fill="#f28080"/><path d="M40,47.5A1.5,1.5,0,0,1,38.5,46V31.415a1.5,1.5,0,0,1-1.561-2.476l2-2A1.5,1.5,0,0,1,41.5,28V46A1.5,1.5,0,0,1,40,47.5Z" fill="#f28080"/><path d="M44,47.5H36a1.5,1.5,0,0,1,0-3h8a1.5,1.5,0,0,1,0,3Z" fill="#f28080"/><path d="M52,23.5H8a1.5,1.5,0,0,1,0-3H52a1.5,1.5,0,0,1,0,3Z" fill="#f28080"/></svg>