<?xml version="1.0" encoding="utf-8"?>
<!-- Uploaded to: SVG Repo, www.svgrepo.com, Generator: SVG Repo Mixer Tools -->
<svg width="800px" height="800px" viewBox="0 0 1024 1024" class="icon"  version="1.1" xmlns="http://www.w3.org/2000/svg"><path d="M917.333333 640V384c0-46.933333-38.4-85.333333-85.333333-85.333333H192c-46.933333 0-85.333333 38.4-85.333333 85.333333v256c0 46.933333 38.4 85.333333 85.333333 85.333333h640c46.933333 0 85.333333-38.4 85.333333-85.333333zM192 384h640v256H192V384z" fill="#507C5C" /><path d="M810.666667 810.666667m-213.333334 0a213.333333 213.333333 0 1 0 426.666667 0 213.333333 213.333333 0 1 0-426.666667 0Z" fill="#F44336" /><path d="M923.946667 878.528l-45.226667 45.269333-181.013333-180.992 45.248-45.269333z" fill="#FFFFFF" /><path d="M742.805333 923.946667l-45.269333-45.226667 180.992-181.013333 45.269333 45.248z" fill="#FFFFFF" /></svg>