<?xml version="1.0" encoding="utf-8"?>
<!-- Uploaded to: SVG Repo, www.svgrepo.com, Generator: SVG Repo Mixer Tools -->
<svg version="1.1" id="Uploaded to svgrepo.com" xmlns="http://www.w3.org/2000/svg" xmlns:xlink="http://www.w3.org/1999/xlink" 
	 width="800px" height="800px" viewBox="0 0 32 32" xml:space="preserve">
<style type="text/css">
	.isometric_een{fill:#F8F7C5;}
	.isometric_acht{fill:#F05A28;}
	.isometric_negen{fill:#BE1E2D;}
	.isometric_elf{fill:#72C0AB;}
	.isometric_twaalf{fill:#569080;}
	.st0{fill:#225B49;}
	.st1{fill:#F28103;}
	.st2{fill:#7BD6C4;}
	.st3{fill:#F29227;}
	.st4{fill:#FF7344;}
	.st5{fill:#F5DF89;}
	.st6{fill:#AD9A74;}
	.st7{fill:none;}
	.st8{fill:#BE1E2D;}
	.st9{fill:#F2D76C;}
	.st10{fill:#72C0AB;}
	.st11{fill:#569080;}
</style>
<g>
	<polygon class="isometric_een" points="19.06,15.841 12.211,10.457 17.072,6.635 23.921,12.019 	"/>
	<polygon class="isometric_negen" points="26,17.177 26,13.645 15.069,22.254 15.073,25.782 	"/>
	<polygon class="isometric_twaalf" points="15.9,18.125 9.051,12.74 6.134,14.912 6.145,18.763 12.994,24.148 12.994,20.61 
		15.9,18.326 	"/>
	<polygon class="isometric_elf" points="12.983,20.418 6.134,14.912 9.051,12.74 15.9,18.125 	"/>
	<polygon class="isometric_acht" points="26,13.645 23.921,12.019 19.06,15.841 12.211,10.457 17.072,6.635 14.993,5 6,12.071 
		6,12.067 6,15.654 6.145,18.763 6.135,14.912 9.051,12.74 15.9,18.125 15.9,18.326 12.994,20.61 12.994,24.148 15.073,25.782 
		15.069,22.254 	"/>
</g>
</svg>